<svg width="24" height="24" viewBox="0 0 24 24" fill="none" xmlns="http://www.w3.org/2000/svg">
<mask id="mask0_30362_16131" style="mask-type:alpha" maskUnits="userSpaceOnUse" x="0" y="0" width="24" height="24">
<path fill-rule="evenodd" clip-rule="evenodd" d="M12 4C7.58137 4 4 7.58137 4 12C4 16.4177 7.58144 20 12 20C16.4177 20 20 16.4177 20 12C20 7.58144 16.4177 4 12 4ZM2 12C2 6.4768 6.4768 2 12 2C17.5222 2 22 6.47673 22 12C22 17.5222 17.5222 22 12 22C6.47673 22 2 17.5222 2 12Z" fill="#222730"/>
<path fill-rule="evenodd" clip-rule="evenodd" d="M11.8822 8C10.8387 8 9.77909 8.65438 9.39974 9.43643C9.1587 9.93334 8.56048 10.1408 8.06357 9.89974C7.56666 9.6587 7.35923 9.06048 7.60026 8.56357C8.35113 7.01562 10.1613 6 11.8822 6C14.687 6 16.5 7.86906 16.5 10C16.5 11.4967 15.4693 12.8177 13.8571 13.4341C13.3548 13.6261 13.1389 13.793 13.054 13.8852C12.9999 13.9439 13 13.9652 13 13.9973L13 14C13 14.5523 12.5523 15 12 15C11.4477 15 11 14.5523 11 14C11 13.4806 11.1764 12.9714 11.5832 12.5299C11.9608 12.1202 12.4948 11.8137 13.1429 11.5659C14.1466 11.1823 14.5 10.5033 14.5 10C14.5 9.13094 13.7466 8 11.8822 8Z" fill="#222730"/>
<path d="M13.225 17.225C13.225 17.9015 12.6766 18.45 12 18.45C11.3235 18.45 10.775 17.9015 10.775 17.225C10.775 16.5485 11.3235 16 12 16C12.6766 16 13.225 16.5485 13.225 17.225Z" fill="#222730"/>
</mask>
<g mask="url(#mask0_30362_16131)">
<rect width="24" height="24" fill="#30A46C"/>
</g>
</svg>
