<svg width="24" height="24" viewBox="0 0 24 24" fill="none" xmlns="http://www.w3.org/2000/svg">
<mask id="mask0_30362_16111" style="mask-type:alpha" maskUnits="userSpaceOnUse" x="0" y="0" width="24" height="24">
<path d="M2 6.33333C2 5.59695 2.59695 5 3.33333 5C4.0697 5 4.66665 5.59695 4.66665 6.33333V18.0667C4.66665 18.803 4.0697 19.4 3.33333 19.4C2.59695 19.4 2 18.803 2 18.0667V6.33333Z" fill="#222730"/>
<path d="M11.3339 6.33357C11.3339 5.59719 11.9308 5.00024 12.6672 5.00024C13.4036 5.00024 14.0005 5.59719 14.0005 6.33357V18.0669C14.0005 18.8033 13.4036 19.4002 12.6672 19.4002C11.9308 19.4002 11.3339 18.8033 11.3339 18.0669V6.33357Z" fill="#222730"/>
<path d="M21.3344 5.00024C20.9662 5.00024 20.6677 5.29872 20.6677 5.66691V18.7336C20.6677 19.1018 20.9662 19.4002 21.3344 19.4002C21.7026 19.4002 22.0011 19.1018 22.0011 18.7336V5.66691C22.0011 5.29872 21.7026 5.00024 21.3344 5.00024Z" fill="#222730"/>
<path d="M5.99875 7.00023C5.99875 6.53526 5.99875 6.30277 6.04986 6.11202C6.18856 5.59438 6.59288 5.19005 7.11053 5.05135C7.30127 5.00024 7.53376 5.00024 7.99874 5.00024C8.46371 5.00024 8.6962 5.00024 8.88694 5.05135C9.40459 5.19005 9.80892 5.59438 9.94762 6.11202C9.99872 6.30277 9.99872 6.53526 9.99872 7.00023V17.4003C9.99872 17.8652 9.99872 18.0977 9.94762 18.2885C9.80892 18.8061 9.40459 19.2104 8.88694 19.3491C8.6962 19.4002 8.46371 19.4002 7.99874 19.4002C7.53376 19.4002 7.30127 19.4002 7.11053 19.3491C6.59288 19.2104 6.18856 18.8061 6.04986 18.2885C5.99875 18.0977 5.99875 17.8652 5.99875 17.4003V7.00023Z" fill="#222730"/>
<path d="M15.3837 6.11202C15.3326 6.30277 15.3326 6.53526 15.3326 7.00023V17.4003C15.3326 17.8652 15.3326 18.0977 15.3837 18.2885C15.5224 18.8061 15.9267 19.2104 16.4444 19.3491C16.6351 19.4002 16.8676 19.4002 17.3326 19.4002C17.7976 19.4002 18.0301 19.4002 18.2208 19.3491C18.7385 19.2104 19.1428 18.8061 19.2815 18.2885C19.3326 18.0977 19.3326 17.8652 19.3326 17.4003V7.00023C19.3326 6.53526 19.3326 6.30277 19.2815 6.11202C19.1428 5.59438 18.7385 5.19005 18.2208 5.05135C18.0301 5.00024 17.7976 5.00024 17.3326 5.00024C16.8676 5.00024 16.6351 5.00024 16.4444 5.05135C15.9267 5.19005 15.5224 5.59438 15.3837 6.11202Z" fill="#222730"/>
</mask>
<g mask="url(#mask0_30362_16111)">
<rect width="24" height="24" fill="#30A46C"/>
</g>
</svg>
