<svg width="24" height="24" viewBox="0 0 24 24" fill="none" xmlns="http://www.w3.org/2000/svg">
<mask id="mask0_30362_16099" style="mask-type:alpha" maskUnits="userSpaceOnUse" x="0" y="0" width="24" height="24">
<path d="M14 16C14 15.4477 14.4477 15 15 15H18C18.5523 15 19 15.4477 19 16C19 16.5523 18.5523 17 18 17H15C14.4477 17 14 16.5523 14 16Z" fill="#222730"/>
<path fill-rule="evenodd" clip-rule="evenodd" d="M23 8.87587V15.1241C23 15.9834 23 16.6925 22.9498 17.2688C22.8977 17.8679 22.7856 18.417 22.5052 18.927C22.1396 19.5922 21.5922 20.1396 20.927 20.5052C20.417 20.7856 19.8679 20.8977 19.2688 20.9498C18.6925 21 17.9834 21 17.1241 21H6.87589C6.01665 21 5.30754 21 4.73119 20.9498C4.13211 20.8977 3.58299 20.7856 3.07299 20.5052C2.40783 20.1396 1.86045 19.5922 1.49478 18.927C1.2144 18.417 1.10232 17.8679 1.05016 17.2688C0.999975 16.6925 0.999987 15.9834 1 15.1241V8.87589C0.999987 8.01666 0.999976 7.30754 1.05016 6.73119C1.10232 6.13211 1.2144 5.58299 1.49478 5.07299C1.86045 4.40783 2.40783 3.86045 3.07299 3.49477C3.58299 3.2144 4.13211 3.10232 4.73119 3.05016C5.30753 2.99997 6.01662 2.99999 6.87584 3H17.1241C17.9833 2.99999 18.6925 2.99998 19.2688 3.05016C19.8679 3.10232 20.417 3.2144 20.927 3.49478C21.5922 3.86045 22.1396 4.40783 22.5052 5.07299C22.7856 5.58299 22.8977 6.13211 22.9498 6.73119C23 7.30754 23 8.01664 23 8.87587ZM20.9574 6.90466C20.9168 6.43824 20.8433 6.20148 20.7526 6.03649C20.5698 5.70392 20.2961 5.43023 19.9635 5.24739C19.7985 5.15669 19.5618 5.08323 19.0953 5.04262C18.616 5.00089 17.9944 5 17.08 5L6.92 5C6.00561 5 5.38398 5.00089 4.90467 5.04262C4.43824 5.08323 4.20148 5.15669 4.0365 5.24739C3.70392 5.43022 3.43023 5.70392 3.24739 6.03649C3.15669 6.20148 3.08323 6.43824 3.04262 6.90466C3.00761 7.30672 3.00135 7.8089 3.00024 8.5H20.9998C20.9987 7.8089 20.9924 7.30672 20.9574 6.90466ZM21 11.5H3L3 15.08C3 15.9944 3.00089 16.616 3.04262 17.0953C3.08323 17.5618 3.15669 17.7985 3.24739 17.9635C3.43023 18.2961 3.70392 18.5698 4.03649 18.7526C4.20148 18.8433 4.43824 18.9168 4.90466 18.9574C5.38398 18.9991 6.00561 19 6.92 19H17.08C17.9944 19 18.616 18.9991 19.0953 18.9574C19.5618 18.9168 19.7985 18.8433 19.9635 18.7526C20.2961 18.5698 20.5698 18.2961 20.7526 17.9635C20.8433 17.7985 20.9168 17.5618 20.9574 17.0953C20.9991 16.616 21 15.9944 21 15.08L21 11.5Z" fill="#222730"/>
</mask>
<g mask="url(#mask0_30362_16099)">
<rect width="24" height="24" fill="#30A46C"/>
</g>
</svg>
