<svg width="24" height="24" viewBox="0 0 24 24" fill="none" xmlns="http://www.w3.org/2000/svg">
<mask id="mask0_30362_16127" style="mask-type:alpha" maskUnits="userSpaceOnUse" x="0" y="0" width="24" height="24">
<path d="M14.8455 2.1001C15.3425 2.1001 15.7455 2.50304 15.7455 3.0001V3.39103C16.7118 3.54068 17.4639 3.93615 17.9364 4.40863C18.2879 4.7601 18.2879 5.32995 17.9364 5.68142C17.5849 6.03289 17.0151 6.03289 16.6636 5.68142C16.4492 5.467 15.8733 5.12684 14.8918 5.12684C14.3818 5.12684 13.9213 5.2187 13.6233 5.37825C13.3694 5.51417 13.2909 5.6529 13.2909 5.86321C13.2909 5.89271 13.2908 6.04152 13.7791 6.24971C13.9918 6.34041 14.2315 6.41131 14.4706 6.47296C14.525 6.487 14.5891 6.50271 14.6567 6.51928C14.8236 6.5602 15.012 6.60639 15.1301 6.64576C15.1806 6.6626 15.2437 6.67787 15.3456 6.70252C15.4255 6.72187 15.5295 6.74702 15.6698 6.78321C15.939 6.85262 16.2809 6.95003 16.6178 7.09367C17.2263 7.35313 18.2 7.93712 18.2 9.13594C18.2 10.1149 17.6869 10.8034 16.9909 11.1975C16.6079 11.4144 16.176 11.5416 15.7455 11.6089V12.0001C15.7455 12.4972 15.3425 12.9001 14.8455 12.9001C14.3484 12.9001 13.9455 12.4972 13.9455 12.0001V11.5967C12.9954 11.4411 12.2239 11.0599 11.7545 10.5905C11.403 10.239 11.403 9.6692 11.7545 9.31773C12.106 8.96626 12.6758 8.96626 13.0273 9.31773C13.2284 9.5188 13.8644 9.87231 14.8918 9.87231C15.416 9.87231 15.8421 9.77945 16.104 9.63119C16.311 9.51396 16.4 9.38429 16.4 9.13594C16.4 9.10644 16.4001 8.95763 15.9118 8.74944C15.6991 8.65873 15.4594 8.58784 15.2203 8.52619C15.1659 8.51215 15.1018 8.49645 15.0343 8.47988C14.8674 8.43896 14.679 8.39276 14.5609 8.35339C14.5103 8.33655 14.4472 8.32128 14.3454 8.29663C14.2654 8.27729 14.1615 8.25213 14.0211 8.21594C13.7519 8.14653 13.41 8.04911 13.0731 7.90548C12.4646 7.64602 11.4909 7.06203 11.4909 5.86321C11.4909 4.84624 12.0724 4.16678 12.7737 3.79134C13.1378 3.59642 13.5427 3.4749 13.9455 3.40529V3.0001C13.9455 2.50304 14.3484 2.1001 14.8455 2.1001Z" fill="#222730"/>
<path fill-rule="evenodd" clip-rule="evenodd" d="M2 13.0002C2 12.006 2.80589 11.2002 3.8 11.2002H4.8C5.68058 11.2002 6.41347 11.8325 6.56939 12.6678C6.95431 12.5471 7.3726 12.4333 7.80544 12.3485C8.67159 12.1789 9.6635 12.1109 10.5969 12.3851C10.9765 12.4966 11.4199 12.7085 11.8053 12.8926C11.9298 12.9521 12.0482 13.0087 12.1565 13.0581C12.6748 13.2944 13.0758 13.4299 13.3928 13.4299H15.9679C16.308 13.4299 16.7507 13.4534 17.1857 13.6301C18.3245 14.0929 18.8537 15.0308 18.7569 15.9711C19.3227 15.9153 19.914 15.8726 20.4792 15.8726C21.662 15.8726 22.4105 16.687 22.568 17.5763C22.7211 18.4409 22.3118 19.4877 21.1947 19.7906C20.304 20.0322 19.141 20.2976 18.0186 20.5538C17.7345 20.6187 17.4528 20.683 17.1788 20.7461C16.4942 20.9039 15.8557 21.055 15.3277 21.1935C14.7832 21.3363 14.4088 21.4526 14.2214 21.5352C13.637 21.7927 12.8875 21.8188 12.2934 21.7919C11.6775 21.7639 11.0837 21.6701 10.7067 21.5881L6.39843 20.8286C6.09864 21.4059 5.49537 21.8002 4.8 21.8002H3.8C2.80589 21.8002 2 20.9943 2 20.0002V13.0002ZM5 13.7951C4.99989 13.7876 4.9999 13.7802 5 13.7727V13.0002C5 12.8897 4.91046 12.8002 4.8 12.8002H3.8C3.68954 12.8002 3.6 12.8897 3.6 13.0002V20.0002C3.6 20.1106 3.68954 20.2002 3.8 20.2002H4.8C4.91046 20.2002 5 20.1106 5 20.0002V19.9263C4.99982 19.9166 4.99982 19.9069 5 19.8971V13.7951ZM6.6 14.3435V19.2395L11.0173 20.0182L11.0339 20.0218C11.3329 20.0877 11.8439 20.1698 12.3659 20.1935C12.9192 20.2186 13.3507 20.1704 13.5762 20.071C13.895 19.9305 14.3853 19.7866 14.9218 19.6459C15.4746 19.5009 16.1332 19.3452 16.8194 19.187C17.1038 19.1215 17.3927 19.0555 17.6817 18.9895C18.8007 18.7341 19.9197 18.4786 20.7759 18.2464C20.8857 18.2166 20.932 18.1656 20.9585 18.1179C20.9917 18.058 21.0119 17.9647 20.9925 17.8553C20.9734 17.7478 20.9212 17.6541 20.8487 17.59C20.7836 17.5325 20.6734 17.4726 20.4792 17.4726C19.6289 17.4726 18.7475 17.5766 17.9143 17.675C17.6177 17.71 17.3266 17.7443 17.0458 17.7729L17.0167 17.7759L16.9936 17.778L12.9141 17.9183C12.4725 17.9334 12.1023 17.5878 12.0871 17.1462C12.0719 16.7046 12.4175 16.3344 12.8591 16.3192L16.8824 16.1809C16.9834 16.1632 17.1394 16.0489 17.165 15.8095C17.1763 15.7042 17.1556 15.592 17.0866 15.4833C17.0181 15.3755 16.8761 15.2314 16.5833 15.1124C16.4413 15.0547 16.2507 15.0299 15.9679 15.0299H13.3928C12.6975 15.0299 12.0172 14.7531 11.4927 14.5139C11.3087 14.43 11.1445 14.3516 10.9949 14.2801C10.6568 14.1187 10.3933 13.9929 10.1459 13.9203C9.56083 13.7483 8.85763 13.7728 8.11304 13.9187C7.58248 14.0226 7.06493 14.1811 6.6 14.3435Z" fill="#222730"/>
</mask>
<g mask="url(#mask0_30362_16127)">
<rect width="24" height="24" fill="#30A46C"/>
</g>
</svg>
