<svg width="24" height="24" viewBox="0 0 24 24" fill="none" xmlns="http://www.w3.org/2000/svg">
<mask id="mask0_30362_16087" style="mask-type:alpha" maskUnits="userSpaceOnUse" x="0" y="0" width="24" height="24">
<path fill-rule="evenodd" clip-rule="evenodd" d="M8.19387 5.50237C6.93154 5.50237 5.90822 6.5449 5.90822 7.83093C5.90822 9.11695 6.93154 10.1595 8.19387 10.1595C9.4562 10.1595 10.4795 9.11695 10.4795 7.83093C10.4795 6.5449 9.4562 5.50237 8.19387 5.50237ZM3.94275 7.83093C3.94275 5.43902 5.84604 3.5 8.19387 3.5C10.5417 3.5 12.445 5.43902 12.445 7.83093C12.445 10.2228 10.5417 12.1619 8.19387 12.1619C5.84604 12.1619 3.94275 10.2228 3.94275 7.83093Z" fill="#222730"/>
<path fill-rule="evenodd" clip-rule="evenodd" d="M20.8436 9.40861C20.8436 11.4821 19.1936 13.1631 17.1583 13.1631C15.123 13.1631 13.4731 11.4821 13.4731 9.40861C13.4731 7.33508 15.123 5.65416 17.1583 5.65416C19.1936 5.65416 20.8436 7.33508 20.8436 9.40861ZM18.8781 9.40861C18.8781 10.3763 18.1081 11.1607 17.1583 11.1607C16.2085 11.1607 15.4385 10.3763 15.4385 9.40861C15.4385 8.44096 16.2085 7.65653 17.1583 7.65653C18.1081 7.65653 18.8781 8.44096 18.8781 9.40861Z" fill="#222730"/>
<path fill-rule="evenodd" clip-rule="evenodd" d="M1.5 17.6235C1.5 15.36 3.30111 13.5251 5.52288 13.5251H10.8934C13.1151 13.5251 14.9162 15.36 14.9162 17.6235C14.9162 19.2027 13.6596 20.483 12.1094 20.483H4.30682C2.75666 20.483 1.5 19.2027 1.5 17.6235ZM5.52288 15.5274C4.38661 15.5274 3.46547 16.4658 3.46547 17.6235C3.46547 18.0968 3.84216 18.4806 4.30682 18.4806H12.1094C12.5741 18.4806 12.9508 18.0968 12.9508 17.6235C12.9508 16.4658 12.0296 15.5274 10.8934 15.5274H5.52288Z" fill="#222730"/>
<path fill-rule="evenodd" clip-rule="evenodd" d="M15.3524 14.8692C15.3524 14.3162 15.7924 13.868 16.3351 13.868H18.6771C20.7884 13.868 22.5 15.6117 22.5 17.7627C22.5 19.2745 21.2971 20.5 19.8131 20.5H16.3351C15.7924 20.5 15.3524 20.0518 15.3524 19.4988C15.3524 18.9459 15.7924 18.4976 16.3351 18.4976H19.8131C20.2115 18.4976 20.5345 18.1686 20.5345 17.7627C20.5345 16.7176 19.7029 15.8704 18.6771 15.8704H16.3351C15.7924 15.8704 15.3524 15.4221 15.3524 14.8692Z" fill="#222730"/>
</mask>
<g mask="url(#mask0_30362_16087)">
<rect width="24" height="24" fill="#30A46C"/>
</g>
</svg>
