<svg width="24" height="24" viewBox="0 0 24 24" fill="none" xmlns="http://www.w3.org/2000/svg">
<mask id="mask0_30362_16067" style="mask-type:alpha" maskUnits="userSpaceOnUse" x="0" y="0" width="24" height="24">
<path d="M13.0377 7C13.0377 6.44772 12.5899 6 12.0377 6C11.4854 6 11.0377 6.44772 11.0377 7V16.9999C11.0377 17.5522 11.4854 17.9999 12.0377 17.9999C12.5899 17.9999 13.0377 17.5522 13.0377 16.9999V7Z" fill="#222730"/>
<path d="M8.46642 10.2365C8.46642 9.68417 8.01871 9.23645 7.46642 9.23645C6.91414 9.23645 6.46642 9.68417 6.46642 10.2365V17C6.46642 17.5523 6.91414 18 7.46642 18C8.01871 18 8.46642 17.5523 8.46642 17V10.2365Z" fill="#222730"/>
<path d="M16.5333 12.8104C17.0856 12.8104 17.5333 13.2581 17.5333 13.8104V16.9999C17.5333 17.5522 17.0856 17.9999 16.5333 17.9999C15.981 17.9999 15.5333 17.5522 15.5333 16.9999V13.8104C15.5333 13.2581 15.981 12.8104 16.5333 12.8104Z" fill="#222730"/>
<path fill-rule="evenodd" clip-rule="evenodd" d="M22 7C22 4.23858 19.7614 2 17 2H7C4.23858 2 2 4.23858 2 7V17C2 19.7614 4.23858 22 7 22H17C19.7614 22 22 19.7614 22 17V7ZM17 4C18.6569 4 20 5.34315 20 7V17C20 18.6569 18.6569 20 17 20H7C5.34314 20 4 18.6569 4 17L4 7C4 5.34315 5.34315 4 7 4L17 4Z" fill="#222730"/>
</mask>
<g mask="url(#mask0_30362_16067)">
<rect width="24" height="24" fill="#30A46C"/>
</g>
</svg>
