<svg width="24" height="24" viewBox="0 0 24 24" fill="none" xmlns="http://www.w3.org/2000/svg">
<mask id="mask0_30362_16091" style="mask-type:alpha" maskUnits="userSpaceOnUse" x="0" y="0" width="24" height="24">
<path fill-rule="evenodd" clip-rule="evenodd" d="M2.5 18.75C2.5 16.1266 4.68412 14 7.37838 14H11.7432C12.3105 14 12.7703 14.4477 12.7703 15C12.7703 15.5523 12.3105 16 11.7432 16H7.37838C5.81855 16 4.55405 17.2312 4.55405 18.75C4.55405 19.4404 5.12882 20 5.83784 20H11.7432C12.3105 20 12.7703 20.4477 12.7703 21C12.7703 21.5523 12.3105 22 11.7432 22H5.83784C3.9944 22 2.5 20.5449 2.5 18.75Z" fill="#222730"/>
<path fill-rule="evenodd" clip-rule="evenodd" d="M10.7162 4C9.01458 4 7.63514 5.34315 7.63514 7C7.63514 8.65685 9.01458 10 10.7162 10C12.4179 10 13.7973 8.65685 13.7973 7C13.7973 5.34315 12.4179 4 10.7162 4ZM5.58108 7C5.58108 4.23858 7.88016 2 10.7162 2C13.5523 2 15.8514 4.23858 15.8514 7C15.8514 9.76142 13.5523 12 10.7162 12C7.88016 12 5.58108 9.76142 5.58108 7Z" fill="#222730"/>
<path d="M18 11C18.4832 11 18.875 11.4133 18.875 11.9231V12.3846C18.875 12.4046 18.8744 12.4244 18.8732 12.4441C19.9273 12.6005 20.7411 13.0478 21.2437 13.5781C21.5854 13.9385 21.5854 14.523 21.2437 14.8835C20.902 15.244 20.348 15.244 20.0063 14.8835C19.758 14.6216 19.1186 14.2308 18.0495 14.2308C17.4963 14.2308 16.9878 14.3355 16.6516 14.5253C16.3584 14.691 16.25 14.8752 16.25 15.1538C16.25 15.246 16.2948 15.4362 16.8253 15.6748C17.0588 15.7799 17.3201 15.8612 17.5772 15.9312C17.6385 15.9478 17.7091 15.9661 17.7827 15.9851C17.9597 16.0309 18.154 16.0811 18.2767 16.1243C18.3337 16.1443 18.4062 16.1629 18.5199 16.1919C18.6059 16.2139 18.7154 16.2419 18.8597 16.2812C19.1461 16.3591 19.5069 16.4676 19.8611 16.627C20.5062 16.9171 21.5 17.5537 21.5 18.8462C21.5 19.9131 20.9719 20.6612 20.2513 21.0917C19.8304 21.3432 19.3507 21.4858 18.8733 21.5568C18.8744 21.5762 18.875 21.5957 18.875 21.6154V22.0769C18.875 22.5867 18.4832 23 18 23C17.5168 23 17.125 22.5867 17.125 22.0769V21.6154C17.125 21.5913 17.1259 21.5675 17.1276 21.5439C16.0913 21.3796 15.2552 20.9483 14.7563 20.4219C14.4146 20.0615 14.4146 19.477 14.7563 19.1165C15.098 18.756 15.652 18.756 15.9937 19.1165C16.229 19.3647 16.9337 19.7692 18.0495 19.7692C18.6178 19.7692 19.0906 19.6635 19.389 19.4852C19.6342 19.3388 19.75 19.1638 19.75 18.8462C19.75 18.754 19.7052 18.5638 19.1747 18.3252C18.9412 18.2201 18.6799 18.1388 18.4228 18.0688C18.3615 18.0522 18.2909 18.0339 18.2173 18.0149C18.0403 17.9691 17.846 17.9189 17.7233 17.8757C17.6663 17.8557 17.5938 17.8371 17.4801 17.8081C17.3941 17.7861 17.2846 17.7581 17.1403 17.7188C16.8539 17.6409 16.4931 17.5324 16.1389 17.373C15.4938 17.0829 14.5 16.4463 14.5 15.1538C14.5 14.0479 15.0974 13.309 15.8257 12.8977C16.228 12.6705 16.6797 12.5333 17.1278 12.4586C17.1259 12.4342 17.125 12.4095 17.125 12.3846V11.9231C17.125 11.4133 17.5168 11 18 11Z" fill="#222730"/>
</mask>
<g mask="url(#mask0_30362_16091)">
<rect width="24" height="24" fill="#30A46C"/>
</g>
</svg>
