<svg width="24" height="24" viewBox="0 0 24 24" fill="none" xmlns="http://www.w3.org/2000/svg">
<mask id="mask0_30362_16071" style="mask-type:alpha" maskUnits="userSpaceOnUse" x="0" y="0" width="24" height="24">
<path fill-rule="evenodd" clip-rule="evenodd" d="M5.50537 5.22605C5.50537 3.44435 6.94452 2 8.7198 2H8.8571C10.2977 2 11.5261 2.91217 12 4.19242C12.4739 2.91217 13.7023 2 15.1429 2H15.2802C17.0555 2 18.4946 3.44435 18.4946 5.22605C18.4946 5.66731 18.4064 6.08788 18.2466 6.47093H18.9586C20.6383 6.47093 22 7.83752 22 9.5233C22 10.7991 21.2201 11.8921 20.1127 12.3482V18.9892C20.1127 20.652 18.7695 22 17.1127 22H7.02334C5.36649 22 4.02335 20.652 4.02335 18.9892V12.4005C2.8443 11.9802 2 10.8507 2 9.5233C2 7.83752 3.36167 6.47093 5.04137 6.47093H5.75343C5.59364 6.08788 5.50537 5.66731 5.50537 5.22605ZM8.7198 4.00723H8.8571C9.60364 4.00723 10.2088 4.6146 10.2088 5.36384V6.44487H8.7198C8.04909 6.44487 7.50537 5.89919 7.50537 5.22605C7.50537 4.55291 8.04909 4.00723 8.7198 4.00723ZM5.04137 8.47816C4.46624 8.47816 4 8.94609 4 9.5233C4 10.1005 4.46624 10.5684 5.04137 10.5684H11V8.47816H5.04137ZM13 8.47816V10.5684H18.9586C19.5338 10.5684 20 10.1005 20 9.5233C20 8.94609 19.5338 8.47816 18.9586 8.47816H13ZM11 12.6399H6.02335V18.9892C6.02335 19.5434 6.47106 19.9928 7.02334 19.9928H11V12.6399ZM13 19.9928V12.6399H18.1127V18.9892C18.1127 19.5434 17.665 19.9928 17.1127 19.9928H13ZM15.1429 4.00723H15.2802C15.9509 4.00723 16.4946 4.55291 16.4946 5.22605C16.4946 5.89919 15.9509 6.44487 15.2802 6.44487H13.7912V5.36384C13.7912 4.6146 14.3964 4.00723 15.1429 4.00723Z" fill="#222730"/>
</mask>
<g mask="url(#mask0_30362_16071)">
<rect width="24" height="24" fill="#30A46C"/>
</g>
</svg>
