<svg width="24" height="24" viewBox="0 0 24 24" fill="none" xmlns="http://www.w3.org/2000/svg">
<mask id="mask0_30362_16119" style="mask-type:alpha" maskUnits="userSpaceOnUse" x="0" y="0" width="24" height="24">
<path fill-rule="evenodd" clip-rule="evenodd" d="M19.6953 2.00248C19.4383 1.98904 19.1897 2.03236 18.9713 2.08052C18.7534 2.12857 18.4866 2.20053 18.175 2.28456L4.81083 5.88837C4.4179 5.99433 4.08996 6.08276 3.83477 6.1642C3.58869 6.24274 3.30762 6.34486 3.06803 6.51232C1.8988 7.3295 1.64926 8.9578 2.5201 10.0876C2.69855 10.3192 2.93614 10.5008 3.1474 10.6494C3.3665 10.8035 3.65292 10.9861 3.99612 11.2049L9.30811 14.5913C9.40305 14.6518 9.41288 14.6587 9.4201 14.664C9.46152 14.6944 9.49801 14.731 9.52827 14.7726C9.53354 14.7798 9.54036 14.7897 9.60051 14.8848L12.7883 19.9292C13.005 20.2721 13.1859 20.5584 13.3388 20.7775C13.4863 20.9889 13.6666 21.2267 13.8969 21.4058C15.0215 22.2805 16.6485 22.0399 17.4719 20.8773C17.6406 20.6391 17.7444 20.3594 17.8244 20.1143C17.9073 19.8604 17.9976 19.534 18.1058 19.1432L21.7702 5.90333C21.8562 5.59246 21.9299 5.32607 21.9794 5.10854C22.029 4.89046 22.074 4.64215 22.0622 4.38506C22.0036 3.10028 20.9797 2.06963 19.6953 2.00248ZM18.6735 4.22157C19.0134 4.1299 19.2349 4.07043 19.402 4.03361C19.5331 4.0047 19.585 4.00076 19.5939 4.00009C19.5945 4.00004 19.5949 4.00001 19.5951 3.99999C19.8486 4.01536 20.0504 4.21846 20.0641 4.47204C20.0641 4.47226 20.064 4.47266 20.064 4.47326C20.0633 4.48214 20.059 4.53401 20.0292 4.66501C19.9913 4.83178 19.9303 5.05288 19.8364 5.3922L16.1847 18.5862C16.0684 19.0065 15.9901 19.2883 15.9231 19.4936C15.8729 19.6475 15.8437 19.7095 15.8366 19.7244C15.8357 19.7264 15.8351 19.7276 15.835 19.728C15.6705 19.9526 15.3537 19.9994 15.1312 19.832C15.131 19.8317 15.1301 19.8307 15.1286 19.8291C15.1176 19.8168 15.0717 19.7659 14.9791 19.6332C14.8555 19.4561 14.699 19.2089 14.4661 18.8403L11.3264 13.872L16.0708 9.12777C16.4613 8.73725 16.4613 8.10409 16.0708 7.71356C15.6803 7.32303 15.0471 7.32302 14.6566 7.71354L9.82256 12.5474L5.09156 9.5314C4.72274 9.29628 4.47537 9.13828 4.29818 9.01363C4.16541 8.92022 4.11452 8.87398 4.10222 8.8628C4.10051 8.86125 4.09955 8.86037 4.09921 8.86014C3.93261 8.63666 3.98119 8.3197 4.20707 8.15637C4.20746 8.15625 4.20864 8.1557 4.21074 8.15473C4.22582 8.14775 4.28823 8.11887 4.44287 8.06951C4.64926 8.00364 4.93259 7.92698 5.35489 7.8131L18.6735 4.22157Z" fill="#222730"/>
</mask>
<g mask="url(#mask0_30362_16119)">
<rect width="24" height="24" fill="#30A46C"/>
</g>
</svg>
