<svg width="24" height="24" viewBox="0 0 24 24" fill="none" xmlns="http://www.w3.org/2000/svg">
<mask id="mask0_30362_16063" style="mask-type:alpha" maskUnits="userSpaceOnUse" x="0" y="0" width="24" height="24">
<path fill-rule="evenodd" clip-rule="evenodd" d="M12 7.80001H8.00001C7.92835 7.80001 7.86201 7.80002 7.80013 7.80013C7.80002 7.86201 7.80001 7.92835 7.80001 8.00001V10C7.80001 10.0717 7.80002 10.138 7.80013 10.1999C7.86201 10.2 7.92835 10.2 8.00001 10.2H12C12.0717 10.2 12.138 10.2 12.1999 10.1999C12.2 10.138 12.2 10.0717 12.2 10V8.00001C12.2 7.92835 12.2 7.86201 12.1999 7.80013C12.138 7.80002 12.0717 7.80001 12 7.80001ZM8.00001 6.00001H12C12.9428 6.00001 13.4142 6.00001 13.7071 6.2929C14 6.58579 14 7.0572 14 8.00001V10C14 10.9428 14 11.4142 13.7071 11.7071C13.4142 12 12.9428 12 12 12H8.00001C7.0572 12 6.58579 12 6.2929 11.7071C6.00001 11.4142 6.00001 10.9428 6.00001 10V8.00001C6.00001 7.0572 6.00001 6.58579 6.2929 6.2929C6.58579 6.00001 7.0572 6.00001 8.00001 6.00001Z" fill="#222730"/>
<path fill-rule="evenodd" clip-rule="evenodd" d="M11.0706 2H8.92943C7.57533 1.99997 6.45869 1.99994 5.57494 2.11876C4.64711 2.2435 3.82769 2.51547 3.17158 3.17158C2.51547 3.82769 2.2435 4.64711 2.11876 5.57494C1.99994 6.45869 1.99997 7.57529 2 8.92939V15.0706C1.99997 16.4247 1.99994 17.5413 2.11876 18.4251C2.2435 19.3529 2.51547 20.1723 3.17158 20.8284C3.82769 21.4845 4.64711 21.7565 5.57494 21.8813C6.4587 22.0001 7.57532 22 8.92944 22H11.0705C12.4247 22 13.5413 22.0001 14.4251 21.8813C15.3529 21.7565 16.1723 21.4845 16.8284 20.8284C17.3561 20.3008 17.6353 19.6675 17.7893 18.9571C18.1253 19.0002 18.5297 19.0001 18.9455 19H19.0544C19.4785 19.0001 19.8906 19.0002 20.2305 18.9545C20.6137 18.903 21.051 18.7774 21.4142 18.4142C21.7774 18.051 21.903 17.6137 21.9545 17.2305C22.0002 16.8906 22.0001 16.4785 22 16.0544V9.9456C22.0001 9.52154 22.0002 9.10941 21.9545 8.7695C21.903 8.38629 21.7774 7.94902 21.4142 7.5858C21.051 7.22259 20.6137 7.09706 20.2305 7.04554C19.8906 6.99984 19.4785 6.99992 19.0544 7.00001H18.9456C18.6072 6.99994 18.2763 6.99988 17.9837 7.02308C17.9685 6.48542 17.9388 6.00288 17.8813 5.57494C17.7565 4.64711 17.4845 3.82769 16.8284 3.17158C16.1723 2.51547 15.3529 2.2435 14.4251 2.11876C13.5413 1.99994 12.4247 1.99997 11.0706 2ZM18 15.242C18 15.1853 18 15.1282 18 15.0707V9.96116C18.0001 9.48602 18.0028 9.22119 18.0277 9.03599L18.0287 9.02871L18.036 9.02771C18.2262 9.00214 18.5003 9.00002 19 9.00002C19.4997 9.00002 19.7738 9.00214 19.964 9.02771L19.9713 9.02871L19.9723 9.03599C19.9979 9.22618 20 9.50034 20 10V16C20 16.4997 19.9979 16.7738 19.9723 16.964L19.9713 16.9713L19.964 16.9723C19.7738 16.9979 19.4997 17 19 17C18.5003 17 18.2262 16.9979 18.036 16.9723L18.0287 16.9713L18.0277 16.964C18.0021 16.7738 18 16.4997 18 16V15.242ZM16 9.83081V9C16 7.55752 15.9979 6.57626 15.8991 5.84144C15.8042 5.13538 15.6368 4.80836 15.4142 4.58579C15.1916 4.36322 14.8646 4.19585 14.1586 4.10092C13.4238 4.00213 12.4425 4 11 4H9C7.55752 4 6.57626 4.00213 5.84144 4.10092C5.13538 4.19585 4.80836 4.36322 4.58579 4.58579C4.36322 4.80836 4.19585 5.13538 4.10092 5.84144C4.00213 6.57626 4 7.55752 4 9V15C4 16.4425 4.00213 17.4238 4.10092 18.1586C4.19585 18.8646 4.36322 19.1916 4.58579 19.4142C4.80836 19.6368 5.13538 19.8042 5.84144 19.8991C6.57626 19.9979 7.55752 20 9 20H11C12.4425 20 13.4238 19.9979 14.1586 19.8991C14.8646 19.8042 15.1916 19.6368 15.4142 19.4142C15.6368 19.1916 15.8042 18.8646 15.8991 18.1586C15.9958 17.4394 15.9999 16.4842 16 15.0917L16 9.94561C16 9.90723 16 9.86895 16 9.83081Z" fill="#222730"/>
<path d="M8.00001 14.3C8.00001 14.8523 7.55229 15.3 7.00001 15.3C6.44772 15.3 6.00001 14.8523 6.00001 14.3C6.00001 13.7477 6.44772 13.3 7.00001 13.3C7.55229 13.3 8.00001 13.7477 8.00001 14.3Z" fill="#222730"/>
<path d="M8.00001 17.3C8.00001 17.8523 7.55229 18.3 7.00001 18.3C6.44772 18.3 6.00001 17.8523 6.00001 17.3C6.00001 16.7477 6.44772 16.3 7.00001 16.3C7.55229 16.3 8.00001 16.7477 8.00001 17.3Z" fill="#222730"/>
<path d="M10 15.3C10.5523 15.3 11 14.8523 11 14.3C11 13.7477 10.5523 13.3 10 13.3C9.44772 13.3 9.00001 13.7477 9.00001 14.3C9.00001 14.8523 9.44772 15.3 10 15.3Z" fill="#222730"/>
<path d="M11 17.3C11 17.8523 10.5523 18.3 10 18.3C9.44772 18.3 9.00001 17.8523 9.00001 17.3C9.00001 16.7477 9.44772 16.3 10 16.3C10.5523 16.3 11 16.7477 11 17.3Z" fill="#222730"/>
<path d="M13 15.3C13.5523 15.3 14 14.8523 14 14.3C14 13.7477 13.5523 13.3 13 13.3C12.4477 13.3 12 13.7477 12 14.3C12 14.8523 12.4477 15.3 13 15.3Z" fill="#222730"/>
<path d="M14 17.3C14 17.8523 13.5523 18.3 13 18.3C12.4477 18.3 12 17.8523 12 17.3C12 16.7477 12.4477 16.3 13 16.3C13.5523 16.3 14 16.7477 14 17.3Z" fill="#222730"/>
</mask>
<g mask="url(#mask0_30362_16063)">
<rect width="24" height="24" fill="#30A46C"/>
</g>
</svg>
