<svg width="24" height="24" viewBox="0 0 24 24" fill="none" xmlns="http://www.w3.org/2000/svg">
<mask id="mask0_30362_16083" style="mask-type:alpha" maskUnits="userSpaceOnUse" x="0" y="0" width="24" height="24">
<path d="M21.6153 8.35262C20.6913 6.74786 19.4062 5.47716 17.7592 4.54116C16.3093 3.71738 14.7726 3.25619 13.1496 3.15759V7.84927C14.4698 7.96668 15.574 8.49013 16.4624 9.41965C17.4784 10.4834 17.9874 11.8664 17.9874 13.5684C17.9874 15.2711 17.47 16.6625 16.4351 17.7444C15.4002 18.827 14.1034 19.3673 12.5453 19.3673C11.12 19.3673 9.92176 18.9185 8.94978 18.0233L5.62275 21.3515C7.55244 23.1172 9.8446 24 12.4999 24C14.4328 24 16.201 23.5414 17.8052 22.6235C19.425 21.6966 20.7017 20.4071 21.6335 18.7544C22.514 17.1937 22.9874 15.4209 22.9997 13.6287C23.0133 11.7392 22.5517 9.98008 21.6153 8.35262Z" fill="#222730"/>
<path d="M7.19 14.2787H1.08644C1.55265 17.0582 3.11145 19.1299 4.78826 20.5051L8.16523 17.1269C7.61083 16.3258 7.28662 15.3762 7.19 14.2787Z" fill="#222730"/>
<path d="M7.17441 13.0897C7.24314 11.9792 7.55309 11.0095 8.10554 10.1818L3.10753 5.18201C1.3769 7.59952 0.753773 10.6812 1.08576 13.089L7.17441 13.0897Z" fill="#222730"/>
<path d="M8.8726 9.26724C9.7311 8.44086 10.7608 7.9693 11.961 7.85319V0C8.89983 0.224432 5.99297 1.69686 3.95435 4.34789L8.8726 9.26724Z" fill="#222730"/>
</mask>
<g mask="url(#mask0_30362_16083)">
<rect width="24" height="24" fill="#30A46C"/>
</g>
</svg>
