<svg width="24" height="24" viewBox="0 0 24 24" fill="none" xmlns="http://www.w3.org/2000/svg">
<mask id="mask0_30362_16115" style="mask-type:alpha" maskUnits="userSpaceOnUse" x="0" y="0" width="24" height="24">
<path fill-rule="evenodd" clip-rule="evenodd" d="M21.0001 11.3863C21.0009 9.81841 21.0014 8.72842 20.5612 7.74808C20.121 6.76775 19.3059 6.04402 18.1335 5.00297L17.1824 4.15752C16.1851 3.2703 15.4923 2.65393 14.6311 2.32649C13.7699 1.99905 12.8426 1.99946 11.5078 2.00005L10.9294 2.0001C9.57531 2.00006 8.4587 2.00003 7.57494 2.11885C6.64711 2.2436 5.82768 2.51556 5.17157 3.17167C4.51547 3.82778 4.2435 4.64721 4.11875 5.57504C3.99994 6.45878 3.99997 7.57537 4 8.92946V15.0707C3.99997 16.4248 3.99994 17.5414 4.11875 18.4252C4.2435 19.353 4.51547 20.1724 5.17157 20.8285C5.82768 21.4846 6.64711 21.7566 7.57494 21.8813C8.4587 22.0002 9.57531 22.0001 10.9294 22.0001H14.0705C15.4247 22.0001 16.5413 22.0002 17.4251 21.8813C18.3529 21.7566 19.1723 21.4846 19.8284 20.8285C20.4845 20.1724 20.7565 19.353 20.8812 18.4252C21.0001 17.5414 21 16.4248 21 15.0707L21.0001 11.3863ZM18.9931 10.4196C18.9987 10.7464 19 11.1316 19 11.5926V15.0001C19 16.4426 18.9979 17.4238 18.8991 18.1587C18.8042 18.8647 18.6368 19.1917 18.4142 19.4143C18.1916 19.6369 17.8646 19.8043 17.1586 19.8992C16.4237 19.998 15.4425 20.0001 14 20.0001H11C9.55752 20.0001 8.57625 19.998 7.84143 19.8992C7.13538 19.8043 6.80836 19.6369 6.58579 19.4143C6.36322 19.1917 6.19585 18.8647 6.10092 18.1587C6.00213 17.4238 6 16.4426 6 15.0001L6 9.0001C6 7.55762 6.00213 6.57635 6.10092 5.84153C6.19585 5.13548 6.36322 4.80846 6.58579 4.58589C6.80836 4.36332 7.13538 4.19594 7.84143 4.10102C8.57625 4.00222 9.55752 4.0001 11 4.0001H11.3334C12.0955 4.0001 12.614 4.00363 13 4.02763L13 5.3819C13 6.20194 12.9999 6.912 13.0744 7.4853C13.1544 8.10154 13.3342 8.69314 13.7924 9.19106C14.2505 9.68898 14.8251 9.91732 15.4326 10.0482C15.9977 10.17 16.7053 10.229 17.5226 10.297L18.9931 10.4196ZM18.6433 8.38347C18.3767 7.91663 17.8792 7.45289 16.6505 6.36076L15.984 5.76823C15.5749 5.40466 15.2586 5.1259 15 4.90931V5.31947C15 6.21993 15.002 6.79858 15.0577 7.22776C15.1097 7.6285 15.194 7.76068 15.2641 7.83684C15.3342 7.91301 15.4589 8.00799 15.854 8.09313C16.277 8.18431 16.8535 8.23433 17.7509 8.30911L18.6433 8.38347Z" fill="#222730"/>
<path fill-rule="evenodd" clip-rule="evenodd" d="M8 15.5C8 14.9477 8.44772 14.5 9 14.5H16C16.5523 14.5 17 14.9477 17 15.5C17 16.0523 16.5523 16.5 16 16.5H9C8.44772 16.5 8 16.0523 8 15.5Z" fill="#222730"/>
<path fill-rule="evenodd" clip-rule="evenodd" d="M8 11.5C8 10.9477 8.44772 10.5 9 10.5H11.755C12.3073 10.5 12.755 10.9477 12.755 11.5C12.755 12.0523 12.3073 12.5 11.755 12.5H9C8.44772 12.5 8 12.0523 8 11.5Z" fill="#222730"/>
</mask>
<g mask="url(#mask0_30362_16115)">
<rect width="24" height="24" fill="#30A46C"/>
</g>
</svg>
