<svg width="24" height="24" viewBox="0 0 24 24" fill="none" xmlns="http://www.w3.org/2000/svg">
<mask id="mask0_30362_16079" style="mask-type:alpha" maskUnits="userSpaceOnUse" x="0" y="0" width="24" height="24">
<path d="M20.3219 9.34464C20.5937 9.46962 20.8687 9.64721 21.1225 9.90102C21.7043 10.4829 21.881 11.1694 21.9469 11.6623C22.0017 12.0723 22.0014 12.5497 22.0012 12.9524V13.1103C22.0014 13.513 22.0017 13.9905 21.9469 14.4005C21.881 14.8934 21.7043 15.5799 21.1225 16.1618L19.7082 14.7476C20.0011 14.4547 20.0011 13.9802 20.0011 13.0314C20.0011 12.0826 20.0011 11.6081 19.7082 11.3152C19.5209 11.1278 19.2592 11.0603 18.8464 11.036C18.4931 9.85289 17.7225 8.84979 16.7053 8.19756V6.65884C16.7053 6.29497 16.4103 6 16.0465 6C15.0403 6 14.1659 6.56383 13.7218 7.39276H9.10696C6.28646 7.39276 4 9.67922 4 12.4997C4 14.6821 5.36891 16.5448 7.29492 17.2759V17.588C7.29492 17.9713 7.29492 18.1629 7.34677 18.3176C7.44643 18.6149 7.67978 18.8483 7.9771 18.948C8.13178 18.9998 8.32343 18.9998 8.70673 18.9998C9.09003 18.9998 9.28168 18.9998 9.43636 18.948C9.73368 18.8483 9.96703 18.6149 10.0667 18.3176C10.1177 18.1655 10.1185 17.9776 10.1185 17.6067H12.4707C12.4707 17.9776 12.4716 18.1655 12.5226 18.3176C12.6222 18.6149 12.8556 18.8483 13.1529 18.948C13.3076 18.9998 13.4992 18.9998 13.8825 18.9998C14.2658 18.9998 14.4575 18.9998 14.6121 18.948C14.9095 18.8483 15.1428 18.6149 15.2425 18.3176C15.2943 18.1629 15.2943 17.9713 15.2943 17.588V17.4285C16.6125 17.0705 17.7187 16.1978 18.384 15.0395C19.0777 15.034 19.4588 14.997 19.7082 14.7476L21.1225 16.1618C20.6313 16.6529 20.0615 16.8582 19.5915 16.9488C19.554 16.9561 19.5163 16.9627 19.4785 16.9688C18.8535 17.7408 18.0695 18.3796 17.1749 18.8353C17.1639 18.8749 17.1519 18.9142 17.1388 18.9533C16.8398 19.8452 16.1397 20.5453 15.2478 20.8443C14.7587 21.0082 14.222 21.0029 13.9582 21.0003C13.9296 21.0001 13.9043 20.9998 13.8825 20.9998C13.8608 20.9998 13.8354 21.0001 13.8068 21.0003C13.543 21.0029 13.0063 21.0082 12.5172 20.8443C12.0458 20.6862 11.628 20.4161 11.2946 20.0649C10.9613 20.4161 10.5435 20.6862 10.072 20.8443C9.58291 21.0082 9.04624 21.0029 8.7824 21.0003C8.75384 21.0001 8.72849 20.9998 8.70673 20.9998C8.68497 20.9998 8.65962 21.0001 8.63106 21.0003C8.36722 21.0029 7.83055 21.0082 7.34145 20.8443C6.44951 20.5453 5.74946 19.8452 5.45047 18.9533C5.40382 18.8141 5.37087 18.6711 5.34766 18.5316C3.33914 17.2773 2 15.0466 2 12.4997C2 8.57466 5.18189 5.39276 9.10696 5.39276H12.7344C13.5745 4.53489 14.7472 4 16.0465 4C17.5149 4 18.7053 5.19041 18.7053 6.65884V7.21593C19.369 7.81329 19.9201 8.53461 20.3219 9.34464Z" fill="#222730"/>
<path d="M7.92969 10C7.92969 9.44772 8.3774 9 8.92969 9L11.9297 9C12.482 9 12.9297 9.44772 12.9297 10C12.9297 10.5523 12.482 11 11.9297 11L8.92969 11C8.3774 11 7.92969 10.5523 7.92969 10Z" fill="#222730"/>
<path d="M15.9433 12C16.5031 12 16.957 11.5523 16.957 11C16.957 10.4477 16.5031 10 15.9433 10C15.3835 10 14.9297 10.4477 14.9297 11C14.9297 11.5523 15.3835 12 15.9433 12Z" fill="#222730"/>
</mask>
<g mask="url(#mask0_30362_16079)">
<rect width="24" height="24" fill="#30A46C"/>
</g>
</svg>
