<svg width="24" height="24" viewBox="0 0 24 24" fill="none" xmlns="http://www.w3.org/2000/svg">
<mask id="mask0_30362_16075" style="mask-type:alpha" maskUnits="userSpaceOnUse" x="0" y="0" width="24" height="24">
<path fill-rule="evenodd" clip-rule="evenodd" d="M5.38186 4.43563C6.05211 4.14841 6.77199 4 7.50002 4C8.22806 4 8.94794 4.14841 9.61819 4.43563C10.2883 4.72281 10.8945 5.14258 11.4033 5.66894L12 6.28625L12.5967 5.66893C13.6247 4.60537 15.0279 4.00001 16.5 4.00001C17.9721 4.00001 19.3752 4.60538 20.4033 5.66893C21.43 6.73112 22 8.16346 22 9.64895C22 11.1344 21.43 12.5668 20.4033 13.629L15.2811 18.9281C14.7738 19.453 14.3374 19.9045 13.943 20.2319C13.5249 20.579 13.0615 20.8677 12.4813 20.9614C12.1625 21.0129 11.8375 21.0129 11.5187 20.9614C10.9385 20.8677 10.4751 20.579 10.057 20.2319C9.66264 19.9045 9.22625 19.453 8.71889 18.9281L3.59674 13.629C3.08805 13.1027 2.68657 12.4801 2.41335 11.7977C2.14015 11.1153 2 10.3853 2 9.64895C2 8.91258 2.14015 8.18255 2.41335 7.5002C2.68657 6.81779 3.08805 6.19519 3.59674 5.66893C4.10551 5.14257 4.71171 4.72281 5.38186 4.43563ZM7.50002 5.98686C7.04615 5.98686 6.5957 6.07929 6.17402 6.25999C5.75223 6.44074 5.36629 6.70682 5.03933 7.04508C4.71229 7.38342 4.45081 7.78726 4.27173 8.23452C4.09264 8.68183 3.99999 9.16257 3.99999 9.64895C3.99999 10.1353 4.09264 10.6161 4.27173 11.0634C4.45081 11.5106 4.71228 11.9145 5.03932 12.2528L10.1246 17.5138C10.6793 18.0876 11.0396 18.4584 11.3394 18.7072C11.625 18.9443 11.7606 18.9875 11.8396 19.0003C11.9458 19.0174 12.0542 19.0174 12.1604 19.0003C12.2394 18.9875 12.375 18.9443 12.6606 18.7072C12.9604 18.4584 13.3208 18.0876 13.8754 17.5138L18.9607 12.2528C19.6218 11.5688 20 10.6329 20 9.64895C20 8.665 19.6218 7.72905 18.9607 7.04508C18.3009 6.36249 17.4149 5.98687 16.5 5.98687C15.5851 5.98687 14.6991 6.36249 14.0393 7.04508L12.7213 8.40862C12.5327 8.6037 12.2723 8.71397 12 8.71397C11.7278 8.71397 11.4673 8.6037 11.2787 8.40862L9.96072 7.04508C9.63376 6.70682 9.24781 6.44074 8.82602 6.25999C8.40434 6.07929 7.95389 5.98686 7.50002 5.98686Z" fill="#222730"/>
</mask>
<g mask="url(#mask0_30362_16075)">
<rect width="24" height="24" fill="#30A46C"/>
</g>
</svg>
