<svg width="24" height="24" viewBox="0 0 24 24" fill="none" xmlns="http://www.w3.org/2000/svg">
<mask id="mask0_30362_16123" style="mask-type:alpha" maskUnits="userSpaceOnUse" x="0" y="0" width="24" height="24">
<path d="M16.136 9.28273C16.5265 8.89221 16.5265 8.25904 16.136 7.86852C15.7454 7.47799 15.1123 7.47799 14.7218 7.86852L7.86843 14.7218C7.4779 15.1124 7.4779 15.7455 7.86843 16.1361C8.25895 16.5266 8.89212 16.5266 9.28264 16.1361L16.136 9.28273Z" fill="#222730"/>
<path fill-rule="evenodd" clip-rule="evenodd" d="M22 9.82831C22 8.52482 22 7.47362 21.9174 6.62849C21.8322 5.75663 21.6516 4.99838 21.2216 4.32087C20.8273 3.69944 20.3006 3.17273 19.6791 2.77836C19.0016 2.3484 18.2434 2.1678 17.3715 2.08258C16.5264 1.99998 15.4752 1.99999 14.1717 2H9.82831C8.52483 1.99999 7.47361 1.99998 6.62849 2.08258C5.75663 2.1678 4.99838 2.3484 4.32087 2.77836C3.69943 3.17273 3.17273 3.69944 2.77836 4.32087C2.3484 4.99838 2.1678 5.75663 2.08258 6.62849C1.99997 7.47361 1.99998 8.52481 2 9.82829V14.1717C1.99998 15.4752 1.99997 16.5264 2.08258 17.3715C2.1678 18.2434 2.3484 19.0016 2.77836 19.6791C3.17273 20.3006 3.69943 20.8273 4.32087 21.2216C4.99838 21.6516 5.75662 21.8322 6.62849 21.9174C7.47361 22 8.5248 22 9.82829 22L14.1717 22C15.4752 22 16.5264 22 17.3715 21.9174C18.2434 21.8322 19.0016 21.6516 19.6791 21.2216C20.3006 20.8273 20.8273 20.3006 21.2216 19.6791C21.6516 19.0016 21.8322 18.2434 21.9174 17.3715C22 16.5264 22 15.4752 22 14.1717V9.82831ZM19.533 5.39252C19.7257 5.69621 19.8565 6.10225 19.9269 6.82305C19.9989 7.55945 20 8.51269 20 9.88V14.12C20 15.4873 19.9989 16.4406 19.9269 17.177C19.8565 17.8978 19.7257 18.3038 19.533 18.6075C19.2964 18.9803 18.9803 19.2964 18.6075 19.533C18.3038 19.7257 17.8978 19.8565 17.177 19.9269C16.4406 19.9989 15.4873 20 14.12 20L9.88 20C8.51269 20 7.55945 19.9989 6.82305 19.9269C6.10224 19.8565 5.69621 19.7257 5.39252 19.533C5.01966 19.2964 4.70364 18.9803 4.46702 18.6075C4.27429 18.3038 4.14355 17.8978 4.07309 17.177C4.00112 16.4406 4 15.4873 4 14.12V9.88C4 8.51269 4.00112 7.55945 4.07309 6.82305C4.14355 6.10225 4.27429 5.69621 4.46702 5.39252C4.70364 5.01966 5.01966 4.70364 5.39252 4.46702C5.69621 4.27429 6.10224 4.14355 6.82305 4.07309C7.55945 4.00112 8.51269 4 9.88 4L14.12 4C15.4873 4 16.4406 4.00112 17.177 4.07309C17.8978 4.14355 18.3038 4.27429 18.6075 4.46702C18.9803 4.70364 19.2964 5.01966 19.533 5.39252Z" fill="#222730"/>
<path d="M8.991 8C8.43872 8 7.991 8.44772 7.991 9C7.991 9.55229 8.43872 10 8.991 10H9.009C9.56129 10 10.009 9.55229 10.009 9C10.009 8.44772 9.56129 8 9.009 8H8.991Z" fill="#222730"/>
<path d="M14.991 14C14.4387 14 13.991 14.4477 13.991 15C13.991 15.5523 14.4387 16 14.991 16H15.009C15.5613 16 16.009 15.5523 16.009 15C16.009 14.4477 15.5613 14 15.009 14H14.991Z" fill="#222730"/>
</mask>
<g mask="url(#mask0_30362_16123)">
<rect width="24" height="24" fill="#30A46C"/>
</g>
</svg>
