<svg width="24" height="24" viewBox="0 0 24 24" fill="none" xmlns="http://www.w3.org/2000/svg">
<mask id="mask0_30362_16095" style="mask-type:alpha" maskUnits="userSpaceOnUse" x="0" y="0" width="24" height="24">
<path d="M10 6C10 5.44772 10.4477 5 11 5H13C13.5523 5 14 5.44772 14 6C14 6.55229 13.5523 7 13 7H11C10.4477 7 10 6.55229 10 6Z" fill="#222730"/>
<path fill-rule="evenodd" clip-rule="evenodd" d="M10.9294 2L14.5343 2C15.2041 1.99999 15.7569 1.99999 16.2095 2.03087C16.6788 2.06289 17.1129 2.13142 17.5307 2.30449C18.5108 2.71046 19.2895 3.48916 19.6955 4.46927C19.8686 4.88708 19.9371 5.32118 19.9691 5.79047C20 6.24307 20 6.79594 20 7.46573L20 15.0706C20 16.4247 20.0001 17.5413 19.8813 18.4251C19.7565 19.3529 19.4845 20.1723 18.8284 20.8284C18.1723 21.4845 17.3529 21.7565 16.4251 21.8813C15.5413 22.0001 14.4247 22 13.0706 22H10.9295C9.57535 22 8.45869 22.0001 7.57494 21.8813C6.64711 21.7565 5.82769 21.4845 5.17158 20.8284C4.51547 20.1723 4.2435 19.3529 4.11876 18.4251C3.99994 17.5413 3.99997 16.4247 4 15.0706V8.92943C3.99997 7.57533 3.99994 6.45869 4.11876 5.57494C4.2435 4.64711 4.51547 3.82769 5.17158 3.17158C5.82769 2.51547 6.64711 2.2435 7.57494 2.11876C8.45869 1.99994 9.57533 1.99997 10.9294 2ZM7.84144 4.10092C7.13538 4.19585 6.80836 4.36322 6.58579 4.58579C6.36322 4.80836 6.19585 5.13538 6.10092 5.84144C6.00213 6.57626 6 7.55752 6 9V15C6 15.3611 6.00014 15.6933 6.00189 16H17.9981C17.9999 15.6933 18 15.3611 18 15V7.5C18 6.78741 17.9995 6.30304 17.9738 5.92661C17.9487 5.55915 17.9031 5.36814 17.8478 5.23464C17.6448 4.74458 17.2554 4.35523 16.7654 4.15224C16.6319 4.09695 16.4409 4.0513 16.0734 4.02623C15.697 4.00055 15.2126 4 14.5 4H11C9.55752 4 8.57626 4.00213 7.84144 4.10092ZM17.9185 18H6.0815C6.08752 18.0541 6.09398 18.107 6.10092 18.1586C6.19585 18.8646 6.36322 19.1916 6.58579 19.4142C6.80836 19.6368 7.13538 19.8042 7.84144 19.8991C8.57626 19.9979 9.55752 20 11 20H13C14.4425 20 15.4238 19.9979 16.1586 19.8991C16.8646 19.8042 17.1916 19.6368 17.4142 19.4142C17.6368 19.1916 17.8042 18.8646 17.8991 18.1586C17.906 18.107 17.9125 18.0541 17.9185 18Z" fill="#222730"/>
</mask>
<g mask="url(#mask0_30362_16095)">
<rect width="24" height="24" fill="#30A46C"/>
</g>
</svg>
