<svg width="24" height="24" viewBox="0 0 24 24" fill="none" xmlns="http://www.w3.org/2000/svg">
<mask id="mask0_30362_16135" style="mask-type:alpha" maskUnits="userSpaceOnUse" x="0" y="0" width="24" height="24">
<path d="M12.9 7.05017C12.9 6.55311 12.497 6.15017 12 6.15017C11.5029 6.15017 11.1 6.55311 11.1 7.05017V7.50017C11.1 7.52446 11.1009 7.54853 11.1028 7.57233C10.6419 7.6451 10.1773 7.77894 9.76351 8.00047C9.01445 8.40148 8.39996 9.12184 8.39996 10.2002C8.39996 11.4604 9.4222 12.081 10.0857 12.3639C10.45 12.5192 10.8211 12.6251 11.1157 12.701C11.2639 12.7393 11.3765 12.7665 11.4649 12.788C11.5819 12.8163 11.6567 12.8344 11.7154 12.854C11.8416 12.8961 12.0413 12.945 12.2233 12.9897C12.299 13.0082 12.3718 13.0261 12.4348 13.0423C12.6993 13.1105 12.968 13.1898 13.2082 13.2922C13.7539 13.5249 13.8 13.7104 13.8 13.8002C13.8 14.1099 13.6809 14.2805 13.4287 14.4233C13.1217 14.5971 12.6354 14.7002 12.0509 14.7002C10.9032 14.7002 10.1783 14.3057 9.93635 14.0638C9.58488 13.7123 9.01503 13.7123 8.66356 14.0638C8.31209 14.4152 8.31209 14.9851 8.66356 15.3366C9.17678 15.8498 10.0367 16.2703 11.1026 16.4305C11.1009 16.4535 11.1 16.4767 11.1 16.5002V16.9502C11.1 17.4472 11.5029 17.8502 12 17.8502C12.497 17.8502 12.9 17.4472 12.9 16.9502V16.5002C12.9 16.481 12.8994 16.4619 12.8982 16.443C13.3892 16.3738 13.8826 16.2348 14.3156 15.9896C15.0568 15.5699 15.6 14.8405 15.6 13.8002C15.6 12.54 14.5777 11.9194 13.9142 11.6365C13.5499 11.4811 13.1788 11.3753 12.8843 11.2993C12.7359 11.2611 12.6233 11.2338 12.5349 11.2123C12.4179 11.184 12.3432 11.1659 12.2846 11.1464C12.1583 11.1043 11.9585 11.0553 11.7764 11.0106C11.7008 10.9921 11.628 10.9743 11.5651 10.958C11.3006 10.8898 11.0319 10.8105 10.7917 10.7081C10.246 10.4755 10.2 10.29 10.2 10.2002C10.2 9.9285 10.3114 9.74886 10.6131 9.58737C10.9588 9.40226 11.4819 9.30017 12.0509 9.30017C13.1505 9.30017 13.8082 9.68123 14.0636 9.93657C14.415 10.288 14.9849 10.288 15.3364 9.93657C15.6878 9.58509 15.6878 9.01525 15.3364 8.66377C14.8193 8.14677 13.9823 7.71063 12.8981 7.55817C12.8993 7.53899 12.9 7.51965 12.9 7.50017V7.05017Z" fill="#222730"/>
<path fill-rule="evenodd" clip-rule="evenodd" d="M12 2C6.47715 2 2 6.47715 2 12C2 17.5228 6.47715 22 12 22C17.5228 22 22 17.5228 22 12C22 6.47715 17.5228 2 12 2ZM4 12C4 7.58172 7.58172 4 12 4C16.4183 4 20 7.58172 20 12C20 16.4183 16.4183 20 12 20C7.58172 20 4 16.4183 4 12Z" fill="#222730"/>
</mask>
<g mask="url(#mask0_30362_16135)">
<rect width="24" height="24" fill="#30A46C"/>
</g>
</svg>
