<svg width="24" height="24" viewBox="0 0 24 24" fill="none" xmlns="http://www.w3.org/2000/svg">
<mask id="mask0_30362_16103" style="mask-type:alpha" maskUnits="userSpaceOnUse" x="0" y="0" width="24" height="24">
<path fill-rule="evenodd" clip-rule="evenodd" d="M16.2229 9.48242C17.0706 9.48265 17.7588 10.1699 17.759 11.0176V13.4629L18.7668 13.6611C19.3322 13.772 19.7971 13.8624 20.1682 13.9717C20.5017 14.0699 20.7996 14.1933 21.0627 14.3896L21.1731 14.4785C21.3431 14.6248 21.4936 14.7923 21.6204 14.9766L21.7385 15.166C21.927 15.4981 22.0065 15.8535 22.0432 16.249C22.079 16.6342 22.0784 17.1075 22.0784 17.6836V19.6016C22.3101 19.9548 22.4454 20.3781 22.4456 20.8291V21.8086C22.4456 22.1399 22.1762 22.409 21.845 22.4092H14.3831C14.2242 22.4091 14.0716 22.3456 13.9592 22.2334C13.8469 22.1209 13.7834 21.9676 13.7834 21.8086V20.8291C13.7836 20.352 13.9348 19.9057 14.1917 19.541L12.3606 17.7764L12.2493 17.6582C11.7283 17.0471 11.7252 16.1349 12.2649 15.5186L12.3752 15.4043C12.9516 14.8619 13.8455 14.8063 14.4875 15.2949L14.6877 15.4473V11.0176C14.688 10.1699 15.3753 9.48268 16.2229 9.48242ZM15.9241 19.8301C15.4255 19.8303 14.983 20.2566 14.9827 20.8291V21.209H21.2454V20.8291L21.2405 20.7236C21.1933 20.2398 20.8262 19.8809 20.3977 19.835L20.3049 19.8301H15.9241ZM16.2229 10.6826C16.038 10.6829 15.8882 10.8327 15.8879 11.0176V16.6582C15.8879 16.8861 15.758 17.094 15.554 17.1953C15.3497 17.2964 15.1054 17.2737 14.9241 17.1357L13.761 16.25L13.6897 16.2051C13.5403 16.1312 13.3605 16.1499 13.2288 16.252L13.1672 16.3096C13.033 16.463 13.0247 16.6852 13.137 16.8467L13.1926 16.9121L15.137 18.7852C15.3794 18.6868 15.6445 18.6309 15.9241 18.6309H20.3049L20.5266 18.6416C20.6473 18.6543 20.7648 18.6788 20.8782 18.7109V17.6836C20.8782 17.0853 20.8773 16.6773 20.8479 16.3604C20.8195 16.0541 20.7676 15.8859 20.6956 15.7588L20.6311 15.6563C20.5629 15.5571 20.4823 15.4664 20.3909 15.3877L20.2981 15.3184C20.194 15.2507 20.0508 15.1873 19.8293 15.1221C19.524 15.0322 19.1234 14.953 18.5364 14.8379L17.0432 14.5449L16.9417 14.5156C16.7144 14.4275 16.559 14.2078 16.5588 13.957V11.0176C16.5586 10.8327 16.4078 10.6828 16.2229 10.6826Z" fill="black"/>
<path fill-rule="evenodd" clip-rule="evenodd" d="M14.4504 1.49024C15.839 1.49024 16.9718 1.48864 17.8626 1.6084C18.7789 1.73171 19.574 1.99859 20.2083 2.63281L20.3225 2.75391C20.8747 3.36718 21.1171 4.11942 21.2327 4.97852C21.3524 5.86928 21.3508 7.00214 21.3508 8.39063V11.3896C21.3503 11.8861 20.9469 12.2888 20.4504 12.2891C19.9537 12.2891 19.5506 11.8863 19.5501 11.3896V8.39063H3.35083V10.3906C3.35083 11.83 3.35251 12.8196 3.45239 13.5625C3.54882 14.2793 3.7209 14.6318 3.96509 14.876L4.06275 14.9639C4.30346 15.1616 4.65162 15.3044 5.27857 15.3887C6.02154 15.4885 7.01114 15.4902 8.45044 15.4902H9.45044L9.54224 15.4951C9.99593 15.5413 10.3508 15.9247 10.3508 16.3906C10.3506 16.8563 9.99582 17.24 9.54224 17.2861L9.45044 17.291H8.45044C7.06195 17.291 5.9291 17.2926 5.03833 17.1729C4.17924 17.0573 3.42699 16.8149 2.81372 16.2627L2.69263 16.1484C2.0584 15.5142 1.79152 14.7191 1.66821 13.8027C1.54846 12.912 1.55005 11.7792 1.55005 10.3906V8.39063C1.55005 7.00207 1.5485 5.8693 1.66821 4.97852C1.79149 4.06193 2.05828 3.26716 2.69263 2.63281L2.81372 2.51856C3.42708 1.96609 4.17901 1.72397 5.03833 1.6084C5.92912 1.48868 7.06189 1.49024 8.45044 1.49024H14.4504ZM8.45044 3.29102C7.01105 3.29102 6.02155 3.29274 5.27857 3.39258C4.6512 3.47693 4.30348 3.61947 4.06275 3.81738L3.96509 3.90527C3.72084 4.14952 3.54881 4.50161 3.45239 5.21875C3.40744 5.55327 3.38432 5.93769 3.37036 6.39063H19.5295C19.5156 5.93775 19.4934 5.55324 19.4485 5.21875C19.3642 4.5918 19.2214 4.24364 19.0237 4.00293L18.9358 3.90527C18.6916 3.66109 18.3391 3.48901 17.6223 3.39258C16.8794 3.29269 15.8898 3.29102 14.4504 3.29102H8.45044Z" fill="black"/>
<path d="M5.45044 12.3887C6.0025 12.3889 6.45044 12.8366 6.45044 13.3887C6.45044 13.9408 6.0025 14.3884 5.45044 14.3887C4.89816 14.3887 4.45044 13.941 4.45044 13.3887C4.45044 12.8364 4.89816 12.3887 5.45044 12.3887Z" fill="black"/>
<path d="M8.45044 12.3887C9.0025 12.3889 9.45044 12.8366 9.45044 13.3887C9.45044 13.9408 9.0025 14.3884 8.45044 14.3887C7.89816 14.3887 7.45044 13.941 7.45044 13.3887C7.45044 12.8364 7.89816 12.3887 8.45044 12.3887Z" fill="black"/>
<path d="M11.4504 12.3887C12.0025 12.3889 12.4504 12.8366 12.4504 13.3887C12.4504 13.9408 12.0025 14.3884 11.4504 14.3887C10.8982 14.3887 10.4504 13.941 10.4504 13.3887C10.4504 12.8364 10.8982 12.3887 11.4504 12.3887Z" fill="black"/>
<path d="M5.45044 9.38867C6.0025 9.38894 6.45044 9.83655 6.45044 10.3887C6.45044 10.9408 6.0025 11.3884 5.45044 11.3887C4.89816 11.3887 4.45044 10.941 4.45044 10.3887C4.45044 9.83639 4.89816 9.38867 5.45044 9.38867Z" fill="black"/>
<path d="M8.45044 9.38867C9.0025 9.38893 9.45044 9.83655 9.45044 10.3887C9.45044 10.9408 9.0025 11.3884 8.45044 11.3887C7.89816 11.3887 7.45044 10.941 7.45044 10.3887C7.45044 9.83639 7.89816 9.38867 8.45044 9.38867Z" fill="black"/>
<path d="M11.4504 9.38867C12.0025 9.38893 12.4504 9.83655 12.4504 10.3887C12.4504 10.9408 12.0025 11.3884 11.4504 11.3887C10.8982 11.3887 10.4504 10.941 10.4504 10.3887C10.4504 9.83639 10.8982 9.38867 11.4504 9.38867Z" fill="black"/>
</mask>
<g mask="url(#mask0_30362_16103)">
<rect width="24" height="24" fill="#30A46C"/>
</g>
</svg>
