<svg width="20" height="20" viewBox="0 0 20 20" fill="none" xmlns="http://www.w3.org/2000/svg">
<mask id="mask0_2323_41049" style="mask-type:alpha" maskUnits="userSpaceOnUse" x="0" y="0" width="20" height="20">
<path fill-rule="evenodd" clip-rule="evenodd" d="M8.08575 4.15199C8.36445 3.12612 9.83944 3.10779 10.145 4.12648L11.3055 7.99517C11.411 8.34675 11.695 8.61982 12.0552 8.71428L16.0189 9.75344C17.0623 10.0273 17.0815 11.4769 16.0457 11.7775L12.1105 12.9187C11.753 13.0224 11.476 13.3017 11.38 13.6559L10.3232 17.5533C10.0447 18.5794 8.57049 18.5983 8.26481 17.5797L7.10341 13.711C6.99797 13.3595 6.71458 13.0864 6.35453 12.9919L2.39005 11.9527C1.34672 11.6788 1.32755 10.2301 2.36328 9.92951L6.29763 8.78833C6.65505 8.68468 6.93273 8.40507 7.02894 8.05111L8.08575 4.15199ZM9.39608 6.69683C9.32259 6.45196 8.96868 6.45609 8.90157 6.70258L8.43634 8.41972C8.20931 9.25652 7.55495 9.91655 6.71015 10.1615L4.97809 10.6634C4.72891 10.7356 4.73379 11.0847 4.98479 11.1505L6.72939 11.608C7.52738 11.8172 8.16758 12.3962 8.44973 13.1523L8.50161 13.3054L9.01202 15.0085C9.0856 15.2533 9.44043 15.2487 9.50737 15.0019L9.9726 13.2864C10.1995 12.4498 10.8534 11.7898 11.698 11.5446L13.4317 11.0419C13.6807 10.9695 13.6759 10.6206 13.425 10.5548L11.6796 10.0974C10.8286 9.8742 10.1574 9.2314 9.90817 8.4008L9.39608 6.69683Z" fill="#1A211E"/>
<path fill-rule="evenodd" clip-rule="evenodd" d="M15.1024 1.96118C15.208 1.57329 15.765 1.56685 15.8806 1.95213L16.3199 3.41502C16.3597 3.54796 16.4674 3.65157 16.6035 3.68736L18.103 4.07983C18.4978 4.18336 18.505 4.73217 18.113 4.84583L16.6253 5.27696C16.4901 5.31616 16.3847 5.42204 16.3483 5.55589L15.9492 7.0303C15.8439 7.41847 15.2859 7.42616 15.1702 7.04099L14.7309 5.57728C14.691 5.44427 14.5835 5.34068 14.4473 5.30494L12.9478 4.91248C12.5534 4.80873 12.5463 4.26112 12.9378 4.14729L14.4263 3.71451C14.5615 3.67525 14.667 3.56954 14.7033 3.43559L15.1024 1.96118ZM15.581 3.63059C15.5613 3.56501 15.4657 3.56529 15.448 3.63141C15.3423 4.0207 15.0377 4.32774 14.6447 4.44185C14.5781 4.46108 14.5786 4.55482 14.6456 4.57267L14.7903 4.62039C15.1171 4.75252 15.369 5.02427 15.4706 5.36253C15.4904 5.42817 15.5855 5.42695 15.6036 5.36089C15.7093 4.97172 16.0133 4.66464 16.4061 4.55045C16.4645 4.53332 16.4713 4.45948 16.427 4.42951L16.4044 4.41963C16.0088 4.3157 15.6972 4.01661 15.581 3.63059Z" fill="#1A211E"/>
</mask>
<g mask="url(#mask0_2323_41049)">
<rect width="20" height="20" fill="#ADDDC0"/>
</g>
</svg>
