<svg width="20" height="20" viewBox="0 0 20 20" fill="none" xmlns="http://www.w3.org/2000/svg">
<path d="M8.96963 13.3333C8.96963 12.7695 9.42667 12.3124 9.99046 12.3124H10.0095C10.5733 12.3124 11.0303 12.7695 11.0303 13.3333C11.0303 13.8971 10.5733 14.3541 10.0095 14.3541H9.99046C9.42667 14.3541 8.96963 13.8971 8.96963 13.3333Z" fill="#1C2024"/>
<path d="M10.8333 6.66669C10.8333 6.20645 10.4602 5.83335 9.99995 5.83335C9.53972 5.83335 9.16662 6.20645 9.16662 6.66669V10C9.16662 10.4603 9.53972 10.8334 9.99995 10.8334C10.4602 10.8334 10.8333 10.4603 10.8333 10V6.66669Z" fill="#1C2024"/>
<path fill-rule="evenodd" clip-rule="evenodd" d="M1.66667 10C1.66667 5.39735 5.39734 1.66669 10 1.66669C14.6018 1.66669 18.3333 5.39729 18.3333 10C18.3333 14.6019 14.6019 18.3334 10 18.3334C5.39728 18.3334 1.66667 14.6018 1.66667 10ZM10 3.33335C6.31781 3.33335 3.33334 6.31782 3.33334 10C3.33334 13.6815 6.31787 16.6667 10 16.6667C13.6814 16.6667 16.6667 13.6814 16.6667 10C16.6667 6.31788 13.6814 3.33335 10 3.33335Z" fill="#1C2024"/>
</svg>
