<svg width="20" height="20" viewBox="0 0 20 20" fill="none" xmlns="http://www.w3.org/2000/svg">
<mask id="mask0_30362_15867" style="mask-type:alpha" maskUnits="userSpaceOnUse" x="0" y="0" width="20" height="20">
<path d="M13.3333 1.66675C13.7936 1.66675 14.1667 2.03984 14.1667 2.50008V3.33342H14.7917C16.7477 3.33342 18.3333 4.91907 18.3333 6.87508V7.50008C18.3333 7.96032 17.9602 8.33342 17.5 8.33342C17.0398 8.33342 16.6667 7.96032 16.6667 7.50008V6.87508C16.6667 5.83955 15.8272 5.00008 14.7917 5.00008H14.1667V5.83341C14.1667 6.29365 13.7936 6.66675 13.3333 6.66675C12.8731 6.66675 12.5 6.29365 12.5 5.83341V5.00008H9.16666C8.54107 5.00008 7.98973 5.00036 7.49999 5.0075V5.83341C7.49999 6.29365 7.12689 6.66675 6.66666 6.66675C6.20642 6.66675 5.83332 6.29365 5.83332 5.83341V5.08899C5.76032 5.09685 5.6893 5.10539 5.62013 5.11469C4.80482 5.22431 4.37307 5.4248 4.06556 5.73232C3.75804 6.03983 3.55755 6.47158 3.44793 7.28688C3.43863 7.35606 3.43009 7.42708 3.42224 7.50008H10.8333C11.2936 7.50008 11.6667 7.87318 11.6667 8.33342C11.6667 8.79365 11.2936 9.16675 10.8333 9.16675H3.34074C3.3336 9.65649 3.33332 10.2078 3.33332 10.8334C3.33332 12.4283 3.33509 13.5407 3.44793 14.3799C3.55755 15.1953 3.75804 15.627 4.06556 15.9345C4.37307 16.242 4.80482 16.4425 5.62013 16.5521C6.4594 16.665 7.57175 16.6668 9.16666 16.6668H9.58333C10.0436 16.6668 10.4167 17.0398 10.4167 17.5001C10.4167 17.9603 10.0436 18.3334 9.58333 18.3334H9.10571C7.58615 18.3334 6.36135 18.3335 5.39805 18.2039C4.39793 18.0695 3.55584 17.7818 2.88705 17.113C2.21825 16.4442 1.93059 15.6021 1.79613 14.602C1.66662 13.6387 1.66663 12.4139 1.66666 10.8944V10.7724C1.66664 9.93495 1.66663 9.18696 1.68831 8.52297C1.67415 8.46207 1.66666 8.39862 1.66666 8.33342C1.66666 8.24371 1.68083 8.15731 1.70706 8.07635C1.72623 7.71139 1.75448 7.37457 1.79613 7.0648C1.93059 6.06468 2.21825 5.2226 2.88705 4.5538C3.55584 3.88501 4.39793 3.59735 5.39805 3.46289C5.53762 3.44412 5.68267 3.42808 5.83332 3.41436V2.50008C5.83332 2.03984 6.20642 1.66675 6.66666 1.66675C7.12689 1.66675 7.49999 2.03984 7.49999 2.50008V3.34049C7.99392 3.3334 8.52854 3.33341 9.10569 3.33342L12.5 3.33342V2.50008C12.5 2.03984 12.8731 1.66675 13.3333 1.66675Z" fill="black"/>
<path d="M15.0005 8.33342C15.4607 8.33342 15.8338 8.70651 15.8338 9.16675V9.58341C15.8338 9.60149 15.8333 9.61943 15.8321 9.63721C16.8357 9.77844 17.6106 10.1822 18.0892 10.6608C18.4147 10.9863 18.4147 11.5139 18.0892 11.8394C17.7638 12.1648 17.2362 12.1648 16.9107 11.8394C16.6743 11.6029 16.0654 11.2501 15.0472 11.2501C14.5203 11.2501 14.036 11.3446 13.7158 11.516C13.4365 11.6656 13.3333 11.8319 13.3333 12.0834C13.3333 12.1666 13.376 12.3383 13.8812 12.5537C14.1036 12.6486 14.3525 12.722 14.5974 12.7852C14.6556 12.8002 14.7228 12.8167 14.7929 12.8338C14.9615 12.8752 15.1466 12.9206 15.2635 12.9595C15.3178 12.9776 15.3868 12.9943 15.4951 13.0206C15.577 13.0404 15.6815 13.0657 15.8188 13.1012C16.0916 13.1715 16.4351 13.2695 16.7725 13.4133C17.3868 13.6753 18.3333 14.2499 18.3333 15.4168C18.3333 16.38 17.8304 17.0554 17.1441 17.444C16.7432 17.671 16.2863 17.7997 15.8317 17.8638C15.8328 17.8813 15.8333 17.899 15.8333 17.9168V18.3335C15.8333 18.7937 15.4602 19.1668 15 19.1668C14.5398 19.1668 14.1667 18.7937 14.1667 18.3335V17.9168C14.1667 17.8951 14.1675 17.8735 14.1691 17.8522C13.1822 17.7039 12.3859 17.3145 11.9107 16.8393C11.5853 16.5139 11.5853 15.9863 11.9107 15.6608C12.2362 15.3354 12.7638 15.3354 13.0892 15.6608C13.3133 15.8849 13.9844 16.2501 15.0472 16.2501C15.5883 16.2501 16.0386 16.1546 16.3229 15.9937C16.5564 15.8615 16.6667 15.7035 16.6667 15.4168C16.6667 15.3336 16.624 15.1619 16.1188 14.9464C15.8963 14.8516 15.6475 14.7782 15.4026 14.715C15.3443 14.7 15.2771 14.6835 15.2071 14.6663C15.0385 14.625 14.8534 14.5796 14.7365 14.5407C14.6822 14.5226 14.6132 14.5058 14.5049 14.4796C14.423 14.4598 14.3186 14.4345 14.1812 14.399C13.9084 14.3287 13.5649 14.2307 13.2275 14.0869C12.6132 13.8249 11.6667 13.2503 11.6667 12.0834C11.6667 11.085 12.2356 10.418 12.9292 10.0467C13.3125 9.84148 13.7429 9.71753 14.1698 9.65017C14.1681 9.62815 14.1672 9.60589 14.1672 9.58341V9.16675C14.1672 8.70651 14.5403 8.33342 15.0005 8.33342Z" fill="black"/>
</mask>
<g mask="url(#mask0_30362_15867)">
<rect width="20" height="20" fill="#000E18" fill-opacity="0.593"/>
</g>
</svg>
