<svg width="20" height="20" viewBox="0 0 20 20" fill="none" xmlns="http://www.w3.org/2000/svg">
<mask id="mask0_2323_35030" style="mask-type:alpha" maskUnits="userSpaceOnUse" x="0" y="0" width="20" height="20">
<path d="M8.33333 2.49999C8.33333 2.96023 7.96024 3.33333 7.5 3.33333C6.29793 3.33333 5.48021 3.3351 4.86786 3.41742C4.27948 3.49653 4.00697 3.63601 3.82149 3.82148C3.63601 4.00696 3.49654 4.27948 3.41743 4.86785C3.3351 5.4802 3.33333 6.29792 3.33333 7.49999C3.33333 7.96023 2.96024 8.33333 2.5 8.33333C2.03976 8.33333 1.66667 7.96023 1.66667 7.49999L1.66667 7.44118C1.66664 6.31276 1.66661 5.38223 1.76563 4.64577C1.86914 3.87589 2.09428 3.19558 2.63597 2.65L2.64834 2.63762C3.1942 2.09473 3.87512 1.86923 4.64578 1.76562C5.38224 1.66661 6.31274 1.66663 7.44116 1.66666L7.5 1.66666C7.96024 1.66666 8.33333 2.03976 8.33333 2.49999Z" fill="#222730"/>
<path d="M3.33333 12.5C3.33333 12.0398 2.96024 11.6667 2.5 11.6667C2.03976 11.6667 1.66667 12.0398 1.66667 12.5L1.66667 12.5588C1.66664 13.6872 1.66661 14.6178 1.76563 15.3542C1.86958 16.1274 2.09622 16.8103 2.64298 17.357C3.18974 17.9038 3.87259 18.1304 4.64578 18.2344C5.38225 18.3334 6.31276 18.3334 7.44119 18.3333H7.5C7.96024 18.3333 8.33333 17.9602 8.33333 17.5C8.33333 17.0398 7.96024 16.6667 7.5 16.6667C6.29793 16.6667 5.48021 16.6649 4.86786 16.5826C4.27948 16.5035 4.00696 16.364 3.82149 16.1785C3.63601 15.993 3.49654 15.7205 3.41743 15.1321C3.3351 14.5198 3.33333 13.7021 3.33333 12.5Z" fill="#222730"/>
<path d="M16.6667 12.5C16.6667 12.0398 17.0398 11.6667 17.5 11.6667C17.9602 11.6667 18.3333 12.0398 18.3333 12.5L18.3333 12.5588C18.3334 13.6872 18.3334 14.6178 18.2344 15.3542C18.1304 16.1274 17.9038 16.8103 17.357 17.357C16.8103 17.9038 16.1274 18.1304 15.3542 18.2344C14.6178 18.3334 13.6872 18.3334 12.5588 18.3333H12.5C12.0398 18.3333 11.6667 17.9602 11.6667 17.5C11.6667 17.0398 12.0398 16.6667 12.5 16.6667C13.7021 16.6667 14.5198 16.6649 15.1321 16.5826C15.7205 16.5035 15.993 16.364 16.1785 16.1785C16.364 15.993 16.5035 15.7205 16.5826 15.1321C16.6649 14.5198 16.6667 13.7021 16.6667 12.5Z" fill="#222730"/>
<path d="M12.5 3.33333C12.0398 3.33333 11.6667 2.96023 11.6667 2.49999C11.6667 2.03976 12.0398 1.66666 12.5 1.66666L12.5588 1.66666C13.6872 1.66663 14.6178 1.66661 15.3542 1.76562C16.1249 1.86923 16.8058 2.09473 17.3517 2.63762L17.364 2.65C17.9057 3.19558 18.1309 3.87589 18.2344 4.64577C18.3334 5.38224 18.3334 6.31275 18.3333 7.44118L18.3333 7.49999C18.3333 7.96023 17.9602 8.33333 17.5 8.33333C17.0398 8.33333 16.6667 7.96023 16.6667 7.49999C16.6667 6.29792 16.6649 5.4802 16.5826 4.86785C16.5035 4.27948 16.364 4.00696 16.1785 3.82148C15.993 3.63601 15.7205 3.49653 15.1321 3.41742C14.5198 3.3351 13.7021 3.33333 12.5 3.33333Z" fill="#222730"/>
<path d="M5.76923 5.83333C5.3444 5.83333 5 6.17772 5 6.60256V13.3974C5 13.8223 5.3444 14.1667 5.76923 14.1667C6.19407 14.1667 6.53846 13.8223 6.53846 13.3974V6.60256C6.53846 6.17772 6.19407 5.83333 5.76923 5.83333Z" fill="#222730"/>
<path d="M11.1539 5.83333C10.729 5.83333 10.3846 6.17772 10.3846 6.60256V13.3974C10.3846 13.8223 10.729 14.1667 11.1539 14.1667C11.5787 14.1667 11.9231 13.8223 11.9231 13.3974V6.60256C11.9231 6.17772 11.5787 5.83333 11.1539 5.83333Z" fill="#222730"/>
<path d="M7.30779 6.98717C7.30779 6.68894 7.30779 6.53983 7.34552 6.41874C7.427 6.15728 7.63174 5.95253 7.8932 5.87106C8.01429 5.83333 8.16341 5.83333 8.46164 5.83333C8.75987 5.83333 8.90898 5.83333 9.03007 5.87106C9.29153 5.95253 9.49628 6.15728 9.57775 6.41874C9.61548 6.53983 9.61548 6.68894 9.61548 6.98717V13.0128C9.61548 13.311 9.61548 13.4602 9.57775 13.5812C9.49628 13.8427 9.29153 14.0475 9.03007 14.1289C8.90898 14.1667 8.75987 14.1667 8.46164 14.1667C8.16341 14.1667 8.01429 14.1667 7.8932 14.1289C7.63174 14.0475 7.427 13.8427 7.34552 13.5812C7.30779 13.4602 7.30779 13.311 7.30779 13.0128V6.98717Z" fill="#222730"/>
<path d="M12.7299 6.41874C12.6922 6.53983 12.6922 6.68894 12.6922 6.98717V13.0128C12.6922 13.311 12.6922 13.4602 12.7299 13.5812C12.8114 13.8427 13.0162 14.0475 13.2776 14.1289C13.3987 14.1667 13.5478 14.1667 13.8461 14.1667C14.1443 14.1667 14.2934 14.1667 14.4145 14.1289C14.676 14.0475 14.8807 13.8427 14.9622 13.5812C14.9999 13.4602 14.9999 13.311 14.9999 13.0128V6.98717C14.9999 6.68894 14.9999 6.53983 14.9622 6.41874C14.8807 6.15728 14.676 5.95253 14.4145 5.87106C14.2934 5.83333 14.1443 5.83333 13.8461 5.83333C13.5478 5.83333 13.3987 5.83333 13.2776 5.87106C13.0162 5.95253 12.8114 6.15728 12.7299 6.41874Z" fill="#222730"/>
</mask>
<g mask="url(#mask0_2323_35030)">
<rect width="20" height="20" fill="#1C2024"/>
</g>
</svg>
