<svg width="16" height="16" viewBox="0 0 16 16" fill="none" xmlns="http://www.w3.org/2000/svg">
<mask id="mask0_30361_6136" style="mask-type:alpha" maskUnits="userSpaceOnUse" x="0" y="0" width="16" height="16">
<path d="M4.81666 7.99992C4.36563 7.99992 3.99999 8.36555 3.99999 8.81659C3.99999 9.26762 4.36563 9.63325 4.81666 9.63325C5.26769 9.63325 5.63333 9.26762 5.63333 8.81659C5.63333 8.36555 5.26769 7.99992 4.81666 7.99992Z" fill="#222730"/>
<path d="M3.99999 11.4833C3.99999 11.0322 4.36563 10.6666 4.81666 10.6666C5.26769 10.6666 5.63333 11.0322 5.63333 11.4833C5.63333 11.9343 5.26769 12.2999 4.81666 12.2999C4.36563 12.2999 3.99999 11.9343 3.99999 11.4833Z" fill="#222730"/>
<path d="M7.48333 7.99992C7.03229 7.99992 6.66666 8.36555 6.66666 8.81659C6.66666 9.26762 7.03229 9.63325 7.48333 9.63325C7.93436 9.63325 8.29999 9.26762 8.29999 8.81659C8.29999 8.36555 7.93436 7.99992 7.48333 7.99992Z" fill="#222730"/>
<path d="M6.66666 11.4833C6.66666 11.0322 7.03229 10.6666 7.48333 10.6666C7.93436 10.6666 8.29999 11.0322 8.29999 11.4833C8.29999 11.9343 7.93436 12.2999 7.48333 12.2999C7.03229 12.2999 6.66666 11.9343 6.66666 11.4833Z" fill="#222730"/>
<path d="M10.15 7.99992C9.69896 7.99992 9.33333 8.36555 9.33333 8.81659C9.33333 9.26762 9.69896 9.63325 10.15 9.63325C10.601 9.63325 10.9667 9.26762 10.9667 8.81659C10.9667 8.36555 10.601 7.99992 10.15 7.99992Z" fill="#222730"/>
<path fill-rule="evenodd" clip-rule="evenodd" d="M11.3333 1.99992C11.3333 1.63173 11.0348 1.33325 10.6667 1.33325C10.2985 1.33325 9.99999 1.63173 9.99999 1.99992V2.66659H5.99999V1.99992C5.99999 1.63173 5.70152 1.33325 5.33333 1.33325C4.96514 1.33325 4.66666 1.63173 4.66666 1.99992V2.67787C4.31439 2.68819 3.99782 2.70795 3.71662 2.74576C3.09806 2.82892 2.55178 3.01023 2.11438 3.44764C1.67697 3.88504 1.49566 4.43132 1.41249 5.04988C1.33328 5.63904 1.3333 6.38344 1.33333 7.28618V10.047C1.3333 10.9497 1.33328 11.6941 1.41249 12.2833C1.49566 12.9018 1.67697 13.4481 2.11438 13.8855C2.55178 14.3229 3.09806 14.5043 3.71662 14.5874C4.30577 14.6666 5.05015 14.6666 5.95285 14.6666H10.047C10.9497 14.6666 11.6942 14.6666 12.2834 14.5874C12.9019 14.5043 13.4482 14.3229 13.8856 13.8855C14.323 13.4481 14.5043 12.9018 14.5875 12.2833C14.6667 11.6941 14.6667 10.9498 14.6667 10.0471V7.28622C14.6667 6.38353 14.6667 5.63903 14.5875 5.04988C14.5043 4.43132 14.323 3.88504 13.8856 3.44764C13.4482 3.01023 12.9019 2.82892 12.2834 2.74576C12.0022 2.70795 11.6856 2.68819 11.3333 2.67787V1.99992ZM4.66666 4.66659V4.01175C4.36742 4.02104 4.11428 4.03762 3.89428 4.0672C3.42358 4.13048 3.20557 4.24206 3.05718 4.39044C2.9088 4.53883 2.79722 4.75684 2.73394 5.22754C2.70436 5.44754 2.68778 5.70068 2.67849 5.99992H13.3215C13.3122 5.70068 13.2956 5.44754 13.266 5.22754C13.2028 4.75684 13.0912 4.53883 12.9428 4.39044C12.7944 4.24206 12.5764 4.13048 12.1057 4.0672C11.8857 4.03762 11.6326 4.02104 11.3333 4.01175V4.66659C11.3333 5.03478 11.0348 5.33325 10.6667 5.33325C10.2985 5.33325 9.99999 5.03478 9.99999 4.66659L9.99999 3.99992H5.99999L5.99999 4.66659C5.99999 5.03478 5.70152 5.33325 5.33333 5.33325C4.96514 5.33325 4.66666 5.03478 4.66666 4.66659ZM2.66666 9.99992V7.33325H13.3333V9.99992C13.3333 10.9616 13.3319 11.6158 13.266 12.1056C13.2028 12.5763 13.0912 12.7943 12.9428 12.9427C12.7944 13.0911 12.5764 13.2027 12.1057 13.266C11.6158 13.3318 10.9616 13.3333 9.99999 13.3333H5.99999C5.03834 13.3333 4.38416 13.3318 3.89428 13.266C3.42358 13.2027 3.20557 13.0911 3.05718 12.9427C2.9088 12.7943 2.79722 12.5763 2.73394 12.1056C2.66808 11.6158 2.66666 10.9616 2.66666 9.99992Z" fill="#222730"/>
</mask>
<g mask="url(#mask0_30361_6136)">
<rect width="16" height="16" fill="#000714" fill-opacity="0.6435"/>
</g>
</svg>
