<svg width="20" height="20" viewBox="0 0 20 20" fill="none" xmlns="http://www.w3.org/2000/svg">
<mask id="mask0_2323_35892" style="mask-type:alpha" maskUnits="userSpaceOnUse" x="0" y="0" width="20" height="20">
<path d="M10.8647 5.83329C10.8647 5.37306 10.4916 4.99996 10.0314 4.99996C9.57116 4.99996 9.19806 5.37306 9.19806 5.83329V14.1665C9.19806 14.6268 9.57116 14.9999 10.0314 14.9999C10.4916 14.9999 10.8647 14.6268 10.8647 14.1665V5.83329Z" fill="black"/>
<path d="M7.05536 8.53034C7.05536 8.0701 6.68226 7.697 6.22202 7.697C5.76179 7.697 5.38869 8.0701 5.38869 8.53034V14.1666C5.38869 14.6268 5.76179 14.9999 6.22202 14.9999C6.68226 14.9999 7.05536 14.6268 7.05536 14.1666V8.53034Z" fill="black"/>
<path d="M13.7778 10.6753C14.238 10.6753 14.6111 11.0484 14.6111 11.5086V14.1665C14.6111 14.6268 14.238 14.9999 13.7778 14.9999C13.3175 14.9999 12.9444 14.6268 12.9444 14.1665V11.5086C12.9444 11.0484 13.3175 10.6753 13.7778 10.6753Z" fill="black"/>
<path fill-rule="evenodd" clip-rule="evenodd" d="M18.3333 5.83329C18.3333 3.53211 16.4679 1.66663 14.1667 1.66663H5.83334C3.53215 1.66663 1.66667 3.53211 1.66667 5.83329V14.1666C1.66667 16.4678 3.53215 18.3333 5.83334 18.3333H14.1667C16.4679 18.3333 18.3333 16.4678 18.3333 14.1666V5.83329ZM14.1667 3.33329C15.5474 3.33329 16.6667 4.45258 16.6667 5.83329V14.1666C16.6667 15.5473 15.5474 16.6666 14.1667 16.6666H5.83334C4.45263 16.6666 3.33334 15.5473 3.33334 14.1666L3.33334 5.83329C3.33334 4.45258 4.45263 3.33329 5.83334 3.33329L14.1667 3.33329Z" fill="black"/>
</mask>
<g mask="url(#mask0_2323_35892)">
<rect width="20" height="20" fill="#000E18" fill-opacity="0.593"/>
</g>
</svg>
