<svg width="16" height="16" viewBox="0 0 16 16" fill="none" xmlns="http://www.w3.org/2000/svg">
<mask id="mask0_2323_34947" style="mask-type:alpha" maskUnits="userSpaceOnUse" x="0" y="0" width="16" height="16">
<path fill-rule="evenodd" clip-rule="evenodd" d="M7.99999 2.66668C5.05448 2.66668 2.66666 5.05449 2.66666 8.00001C2.66666 10.9455 5.05448 13.3333 7.99999 13.3333C10.9455 13.3333 13.3333 10.9455 13.3333 8.00001C13.3333 5.05449 10.9455 2.66668 7.99999 2.66668ZM1.33333 8.00001C1.33333 4.31811 4.3181 1.33334 7.99999 1.33334C11.6819 1.33334 14.6667 4.31811 14.6667 8.00001C14.6667 11.6819 11.6819 14.6667 7.99999 14.6667C4.3181 14.6667 1.33333 11.6819 1.33333 8.00001Z" fill="#222730"/>
<path fill-rule="evenodd" clip-rule="evenodd" d="M7.99999 4.66668C8.36818 4.66668 8.66666 4.96515 8.66666 5.33334V7.69903L10.3569 8.77024C10.6679 8.96734 10.7602 9.37923 10.5631 9.69022C10.366 10.0012 9.95411 10.0935 9.64312 9.89644L7.64312 8.6289C7.45022 8.50665 7.33333 8.29417 7.33333 8.0658V5.33334C7.33333 4.96515 7.6318 4.66668 7.99999 4.66668Z" fill="#222730"/>
</mask>
<g mask="url(#mask0_2323_34947)">
<rect width="16" height="16" fill="#000714" fill-opacity="0.6435"/>
</g>
</svg>
