<svg width="20" height="20" viewBox="0 0 20 20" fill="none" xmlns="http://www.w3.org/2000/svg">
<mask id="mask0_2328_41116" style="mask-type:alpha" maskUnits="userSpaceOnUse" x="0" y="0" width="20" height="20">
<path d="M3.26784 6.3426C3.08872 5.91864 2.59984 5.72017 2.17589 5.89929C1.75193 6.07841 1.55346 6.5673 1.73258 6.99125C2.32159 8.38533 3.25319 9.5999 4.42211 10.5291L3.44518 12.2212C3.21506 12.6198 3.35162 13.1294 3.7502 13.3595C4.14878 13.5897 4.65843 13.4531 4.88855 13.0545L5.81951 11.442C6.83545 11.9781 7.96684 12.325 9.16687 12.4355V13.7502C9.16687 14.2105 9.53996 14.5836 10.0002 14.5836C10.4604 14.5836 10.8335 14.2105 10.8335 13.7502V12.4355C12.0965 12.3192 13.2834 11.9411 14.3397 11.3562L15.3202 13.0545C15.5503 13.4531 16.06 13.5897 16.4585 13.3595C16.8571 13.1294 16.9937 12.6198 16.7636 12.2212L15.7219 10.417L15.7202 10.414C16.8227 9.50052 17.7029 8.32847 18.2678 6.99125C18.447 6.5673 18.2485 6.07841 17.8245 5.89929C17.4006 5.72017 16.9117 5.91864 16.7326 6.3426C15.6235 8.96751 13.0257 10.807 10.0002 10.807C6.97469 10.807 4.37688 8.96751 3.26784 6.3426Z" fill="#222730"/>
</mask>
<g mask="url(#mask0_2328_41116)">
<rect width="20" height="20" fill="#FBFEFC"/>
</g>
</svg>
