<svg width="20" height="20" viewBox="0 0 20 20" fill="none" xmlns="http://www.w3.org/2000/svg">
<mask id="mask0_2323_644" style="mask-type:alpha" maskUnits="userSpaceOnUse" x="0" y="0" width="20" height="20">
<path d="M16.9352 7.78718C17.1617 7.89133 17.3909 8.03932 17.6024 8.25083C18.0873 8.73573 18.2345 9.3078 18.2894 9.71855C18.3351 10.0603 18.3348 10.4581 18.3346 10.7937V10.9253C18.3348 11.2608 18.3351 11.6587 18.2894 12.0004C18.2345 12.4112 18.0873 12.9832 17.6024 13.4681L16.4239 12.2896C16.6679 12.0455 16.6679 11.6502 16.6679 10.8595C16.6679 10.0688 16.6679 9.67342 16.4239 9.42934C16.2677 9.27318 16.0496 9.21693 15.7057 9.19667C15.4113 8.21072 14.769 7.37481 13.9214 6.83128V5.54902C13.9214 5.24579 13.6756 4.99998 13.3724 4.99998C12.5339 4.99998 11.8052 5.46984 11.4352 6.16061H7.58946C5.23904 6.16061 3.33366 8.066 3.33366 10.4164C3.33366 12.2351 4.47442 13.7873 6.07943 14.3965V14.6566C6.07943 14.9761 6.07943 15.1358 6.12264 15.2647C6.20569 15.5124 6.40015 15.7069 6.64791 15.7899C6.77681 15.8331 6.93652 15.8331 7.25593 15.8331C7.57535 15.8331 7.73506 15.8331 7.86396 15.7899C8.11172 15.7069 8.30618 15.5124 8.38923 15.2647C8.43173 15.1379 8.43243 14.9813 8.43244 14.6722H10.3926C10.3926 14.9813 10.3933 15.1379 10.4358 15.2647C10.5188 15.5124 10.7133 15.7069 10.9611 15.7899C11.09 15.8331 11.2497 15.8331 11.5691 15.8331C11.8885 15.8331 12.0482 15.8331 12.1771 15.7899C12.4249 15.7069 12.6193 15.5124 12.7024 15.2647C12.7456 15.1358 12.7456 14.9761 12.7456 14.6566V14.5238C13.8441 14.2254 14.7659 13.4981 15.3203 12.5329C15.8984 12.5283 16.216 12.4975 16.4239 12.2896L17.6024 13.4681C17.1931 13.8774 16.7183 14.0485 16.3266 14.124C16.2953 14.13 16.2639 14.1356 16.2324 14.1407C15.7116 14.784 15.0583 15.3164 14.3127 15.6961C14.3036 15.729 14.2935 15.7618 14.2826 15.7944C14.0335 16.5377 13.4501 17.121 12.7068 17.3702C12.2992 17.5068 11.852 17.5024 11.6321 17.5003C11.6083 17.5 11.5872 17.4998 11.5691 17.4998C11.551 17.4998 11.5298 17.5 11.506 17.5003C11.2862 17.5024 10.8389 17.5068 10.4314 17.3702C10.0385 17.2385 9.69029 17.0134 9.41251 16.7207C9.13473 17.0134 8.78653 17.2385 8.39367 17.3702C7.98608 17.5068 7.53886 17.5024 7.31899 17.5003C7.2952 17.5 7.27406 17.4998 7.25593 17.4998C7.2378 17.4998 7.21667 17.5 7.19288 17.5003C6.97301 17.5024 6.52579 17.5068 6.1182 17.3702C5.37492 17.121 4.79154 16.5377 4.54239 15.7944C4.50351 15.6784 4.47605 15.5592 4.45671 15.443C2.78294 14.3977 1.66699 12.5389 1.66699 10.4164C1.66699 7.14553 4.31857 4.49395 7.58946 4.49395H10.6124C11.3124 3.77906 12.2897 3.33331 13.3724 3.33331C14.5961 3.33331 15.5881 4.32532 15.5881 5.54902V6.01326C16.1412 6.51106 16.6004 7.11215 16.9352 7.78718Z" fill="#222730"/>
<path d="M6.6084 8.33331C6.6084 7.87308 6.98149 7.49998 7.44173 7.49998L9.94173 7.49998C10.402 7.49998 10.7751 7.87308 10.7751 8.33331C10.7751 8.79355 10.402 9.16665 9.94173 9.16665L7.44173 9.16665C6.98149 9.16665 6.6084 8.79355 6.6084 8.33331Z" fill="#222730"/>
<path d="M13.2864 9.99998C13.753 9.99998 14.1311 9.62688 14.1311 9.16665C14.1311 8.70641 13.753 8.33331 13.2864 8.33331C12.8199 8.33331 12.4417 8.70641 12.4417 9.16665C12.4417 9.62688 12.8199 9.99998 13.2864 9.99998Z" fill="#222730"/>
</mask>
<g mask="url(#mask0_2323_644)">
<rect width="20" height="20" fill="#1C2024"/>
</g>
</svg>
