<svg width="16" height="16" viewBox="0 0 16 16" fill="none" xmlns="http://www.w3.org/2000/svg">
<mask id="mask0_2323_34959" style="mask-type:alpha" maskUnits="userSpaceOnUse" x="0" y="0" width="16" height="16">
<path d="M8.66666 9.63526C8.66666 9.26707 8.36819 8.9686 8 8.9686C7.63181 8.9686 7.33333 9.26707 7.33333 9.63526V10.9686C7.33333 11.3368 7.63181 11.6353 8 11.6353C8.36819 11.6353 8.66666 11.3368 8.66666 10.9686V9.63526Z" fill="#222730"/>
<path fill-rule="evenodd" clip-rule="evenodd" d="M4.33334 4.70269C4.34263 2.77476 6.04903 1.32624 8.00757 1.33337C9.96618 1.33403 11.6667 2.79015 11.6667 4.71784V6.00001C11.6667 6.02644 11.6651 6.05251 11.6621 6.07813C12.1595 6.154 12.6138 6.31403 12.9832 6.68343C13.3718 7.07202 13.5287 7.55461 13.5997 8.08239C13.6667 8.58083 13.6667 9.20758 13.6667 9.9542V10.7124C13.6667 11.459 13.6667 12.0859 13.5997 12.5843C13.5287 13.1121 13.3718 13.5947 12.9832 13.9833C12.5947 14.3719 12.1121 14.5288 11.5843 14.5997C11.0858 14.6667 10.4591 14.6667 9.7124 14.6667H6.28759C5.54094 14.6667 4.91417 14.6667 4.41571 14.5997C3.88793 14.5288 3.40534 14.3719 3.01675 13.9833C2.62816 13.5947 2.47125 13.1121 2.4003 12.5843C2.33328 12.0858 2.3333 11.4591 2.33333 10.7124V9.95427C2.3333 9.20762 2.33328 8.58085 2.4003 8.08239C2.47125 7.55461 2.62816 7.07202 3.01675 6.68343C3.38615 6.31403 3.8405 6.15399 4.33786 6.07813C4.33487 6.05251 4.33333 6.02644 4.33333 6.00001V4.7059L4.33334 4.70269ZM10.3333 6.00001L10.3333 6.00164C10.1366 5.99999 9.9296 6 9.71241 6.00001H6.28759C6.07041 6 5.86335 5.99999 5.66666 6.00164L5.66666 6.00001V4.70763C5.67274 3.63391 6.65709 2.66135 8.0036 2.6667L8.00625 2.6667C9.35329 2.6667 10.3333 3.6445 10.3333 4.71784V6.00001ZM12.2783 8.26006C12.2272 7.88012 12.14 7.7258 12.0404 7.62624C11.9409 7.52667 11.7865 7.4395 11.4066 7.38842C11.0075 7.33476 10.4712 7.33334 9.66666 7.33334H6.33333C5.52881 7.33334 4.99249 7.33476 4.59338 7.38842C4.21345 7.4395 4.05912 7.52667 3.95956 7.62624C3.85999 7.7258 3.77282 7.88012 3.72174 8.26006C3.66808 8.65916 3.66666 9.19549 3.66666 10V10.6667C3.66666 11.4712 3.66808 12.0075 3.72174 12.4066C3.77282 12.7866 3.85999 12.9409 3.95956 13.0405C4.05912 13.14 4.21345 13.2272 4.59338 13.2783C4.99249 13.3319 5.52881 13.3333 6.33333 13.3333H9.66666C10.4712 13.3333 11.0075 13.3319 11.4066 13.2783C11.7865 13.2272 11.9409 13.14 12.0404 13.0405C12.14 12.9409 12.2272 12.7866 12.2783 12.4066C12.3319 12.0075 12.3333 11.4712 12.3333 10.6667V10C12.3333 9.19549 12.3319 8.65916 12.2783 8.26006Z" fill="#222730"/>
</mask>
<g mask="url(#mask0_2323_34959)">
<rect width="16" height="16" fill="#000714" fill-opacity="0.6435"/>
</g>
</svg>
