<svg width="20" height="20" viewBox="0 0 20 20" fill="none" xmlns="http://www.w3.org/2000/svg">
<mask id="mask0_30361_6379" style="mask-type:alpha" maskUnits="userSpaceOnUse" x="0" y="0" width="20" height="20">
<path fill-rule="evenodd" clip-rule="evenodd" d="M10 6.49984H6.66667C6.60696 6.49984 6.55167 6.49985 6.50011 6.49995C6.50001 6.55151 6.5 6.60679 6.5 6.66651V8.33318C6.5 8.39289 6.50001 8.44817 6.50011 8.49974C6.55167 8.49983 6.60696 8.49984 6.66667 8.49984H10C10.0597 8.49984 10.115 8.49983 10.1666 8.49974C10.1667 8.44817 10.1667 8.39289 10.1667 8.33318V6.66651C10.1667 6.60679 10.1667 6.55151 10.1666 6.49995C10.115 6.49985 10.0597 6.49984 10 6.49984ZM6.66667 4.99984H10C10.7857 4.99984 11.1785 4.99984 11.4226 5.24392C11.6667 5.488 11.6667 5.88083 11.6667 6.66651V8.33318C11.6667 9.11885 11.6667 9.51169 11.4226 9.75576C11.1785 9.99984 10.7857 9.99984 10 9.99984H6.66667C5.881 9.99984 5.48816 9.99984 5.24408 9.75576C5 9.51169 5 9.11885 5 8.33318V6.66651C5 5.88083 5 5.488 5.24408 5.24392C5.48816 4.99984 5.881 4.99984 6.66667 4.99984Z" fill="black"/>
<path fill-rule="evenodd" clip-rule="evenodd" d="M9.22548 1.6665H7.44119C6.31277 1.66648 5.38224 1.66645 4.64578 1.76547C3.87259 1.86942 3.18974 2.09606 2.64298 2.64282C2.09622 3.18958 1.86958 3.87243 1.76563 4.64562C1.66662 5.38208 1.66664 6.31258 1.66667 7.441V12.5586C1.66664 13.6871 1.66662 14.6176 1.76563 15.3541C1.86958 16.1273 2.09622 16.8101 2.64298 17.3569C3.18974 17.9036 3.87259 18.1303 4.64578 18.2342C5.38225 18.3332 6.31276 18.3332 7.4412 18.3332H9.22546C10.3539 18.3332 11.2844 18.3332 12.0209 18.2342C12.7941 18.1303 13.4769 17.9036 14.0237 17.3569C14.4634 16.9171 14.6961 16.3894 14.8244 15.7974C15.1044 15.8333 15.4414 15.8333 15.7879 15.8332H15.8787C16.232 15.8333 16.5755 15.8333 16.8588 15.7952C17.1781 15.7523 17.5425 15.6477 17.8452 15.345C18.1479 15.0423 18.2525 14.678 18.2954 14.3586C18.3335 14.0754 18.3334 13.7319 18.3333 13.3785V8.28784C18.3334 7.93445 18.3335 7.59101 18.2954 7.30775C18.2525 6.98842 18.1479 6.62402 17.8452 6.32134C17.5425 6.01866 17.1781 5.91406 16.8588 5.87112C16.5755 5.83304 16.2321 5.83311 15.8787 5.83318H15.788C15.506 5.83312 15.2303 5.83307 14.9865 5.85241C14.9737 5.40435 14.949 5.00224 14.901 4.64562C14.7971 3.87243 14.5704 3.18958 14.0237 2.64282C13.4769 2.09606 12.7941 1.86942 12.0209 1.76547C11.2844 1.66645 10.3539 1.66648 9.22548 1.6665ZM15 12.7015C15 12.6542 15 12.6067 15 12.5587V8.3008C15.0001 7.90485 15.0023 7.68417 15.0231 7.52983L15.0239 7.52376L15.03 7.52293C15.1885 7.50162 15.4169 7.49985 15.8333 7.49985C16.2497 7.49985 16.4782 7.50162 16.6367 7.52293L16.6428 7.52376L16.6436 7.52983C16.6649 7.68832 16.6667 7.91679 16.6667 8.33318V13.3332C16.6667 13.7496 16.6649 13.978 16.6436 14.1365L16.6428 14.1426L16.6367 14.1434C16.4782 14.1647 16.2497 14.1665 15.8333 14.1665C15.4169 14.1665 15.1885 14.1647 15.03 14.1434L15.0239 14.1426L15.0231 14.1365C15.0018 13.978 15 13.7496 15 13.3332V12.7015ZM13.3333 8.19218V7.49984C13.3333 6.29777 13.3316 5.48005 13.2492 4.8677C13.1701 4.27932 13.0307 4.0068 12.8452 3.82133C12.6597 3.63585 12.3872 3.49638 11.7988 3.41727C11.1865 3.33494 10.3687 3.33317 9.16667 3.33317H7.5C6.29793 3.33317 5.48021 3.33494 4.86786 3.41727C4.27948 3.49638 4.00697 3.63585 3.82149 3.82133C3.63602 4.0068 3.49654 4.27932 3.41743 4.8677C3.33511 5.48005 3.33334 6.29777 3.33334 7.49984V12.4998C3.33334 13.7019 3.33511 14.5196 3.41743 15.132C3.49654 15.7204 3.63602 15.9929 3.82149 16.1784C4.00697 16.3638 4.27948 16.5033 4.86786 16.5824C5.48021 16.6647 6.29793 16.6665 7.5 16.6665H9.16667C10.3687 16.6665 11.1865 16.6647 11.7988 16.5824C12.3872 16.5033 12.6597 16.3638 12.8452 16.1784C13.0307 15.9929 13.1701 15.7204 13.2492 15.132C13.3298 14.5327 13.3332 13.7367 13.3333 12.5762L13.3333 8.28784C13.3333 8.25587 13.3333 8.22396 13.3333 8.19218Z" fill="black"/>
<path d="M6.66667 11.9165C6.66667 12.3767 6.29357 12.7498 5.83334 12.7498C5.3731 12.7498 5 12.3767 5 11.9165C5 11.4563 5.3731 11.0832 5.83334 11.0832C6.29357 11.0832 6.66667 11.4563 6.66667 11.9165Z" fill="black"/>
<path d="M6.66667 14.4165C6.66667 14.8767 6.29357 15.2498 5.83334 15.2498C5.3731 15.2498 5 14.8767 5 14.4165C5 13.9563 5.3731 13.5832 5.83334 13.5832C6.29357 13.5832 6.66667 13.9563 6.66667 14.4165Z" fill="black"/>
<path d="M8.33334 12.7498C8.79357 12.7498 9.16667 12.3767 9.16667 11.9165C9.16667 11.4563 8.79357 11.0832 8.33334 11.0832C7.8731 11.0832 7.5 11.4563 7.5 11.9165C7.5 12.3767 7.8731 12.7498 8.33334 12.7498Z" fill="black"/>
<path d="M9.16667 14.4165C9.16667 14.8767 8.79357 15.2498 8.33334 15.2498C7.8731 15.2498 7.5 14.8767 7.5 14.4165C7.5 13.9563 7.8731 13.5832 8.33334 13.5832C8.79357 13.5832 9.16667 13.9563 9.16667 14.4165Z" fill="black"/>
<path d="M10.8333 12.7498C11.2936 12.7498 11.6667 12.3767 11.6667 11.9165C11.6667 11.4563 11.2936 11.0832 10.8333 11.0832C10.3731 11.0832 10 11.4563 10 11.9165C10 12.3767 10.3731 12.7498 10.8333 12.7498Z" fill="black"/>
<path d="M11.6667 14.4165C11.6667 14.8767 11.2936 15.2498 10.8333 15.2498C10.3731 15.2498 10 14.8767 10 14.4165C10 13.9563 10.3731 13.5832 10.8333 13.5832C11.2936 13.5832 11.6667 13.9563 11.6667 14.4165Z" fill="black"/>
</mask>
<g mask="url(#mask0_30361_6379)">
<rect width="20" height="20" fill="#000714" fill-opacity="0.6435"/>
</g>
</svg>
