<svg width="20" height="20" viewBox="0 0 20 20" fill="none" xmlns="http://www.w3.org/2000/svg">
<path d="M12.4804 6.11035H7.52168V14.2741H12.4804V6.11035Z" fill="#FF5F00"/>
<path d="M8.03244 10.1928C8.03183 9.40669 8.20862 8.63075 8.54943 7.9237C8.89025 7.21664 9.38616 6.597 9.99963 6.11165C9.23981 5.50975 8.32732 5.13546 7.36646 5.03157C6.40559 4.92768 5.4351 5.09836 4.56592 5.52413C3.69674 5.94989 2.96393 6.61355 2.45124 7.43926C1.93855 8.26497 1.66667 9.21941 1.66667 10.1935C1.66667 11.1676 1.93855 12.122 2.45124 12.9477C2.96393 13.7734 3.69674 14.4371 4.56592 14.8629C5.4351 15.2886 6.40559 15.4593 7.36646 15.3554C8.32732 15.2515 9.23981 14.8772 9.99963 14.2754C9.38597 13.7899 8.88994 13.17 8.54912 12.4627C8.2083 11.7553 8.03161 10.9791 8.03244 10.1928V10.1928Z" fill="#EB001B"/>
<path d="M17.8412 13.4101V13.2429H17.9127V13.2083H17.7425V13.2429H17.8097V13.4101H17.8412ZM18.1717 13.4101V13.2083H18.1202L18.0601 13.3525L18 13.2083H17.9485V13.4101H17.9857V13.2573L18.0415 13.3885H18.0801L18.1359 13.2573V13.4101H18.1717Z" fill="#F79E1B"/>
<path d="M18.3333 10.1929C18.3333 11.167 18.0614 12.1215 17.5486 12.9473C17.0358 13.773 16.3029 14.4367 15.4336 14.8624C14.5643 15.2881 13.5937 15.4586 12.6328 15.3546C11.6719 15.2506 10.7594 14.8761 9.99962 14.274C10.6128 13.7882 11.1086 13.1684 11.4495 12.4613C11.7904 11.7542 11.9676 10.9783 11.9676 10.1921C11.9676 9.40598 11.7904 8.63008 11.4495 7.92299C11.1086 7.21589 10.6128 6.59607 9.99962 6.1103C10.7594 5.50821 11.6719 5.13374 12.6328 5.0297C13.5937 4.92565 14.5643 5.09623 15.4336 5.52194C16.3029 5.94764 17.0358 6.61129 17.5486 7.43702C18.0614 8.26276 18.3333 9.21726 18.3333 10.1914V10.1929Z" fill="#F79E1B"/>
</svg>
