<svg width="20" height="20" viewBox="0 0 20 20" fill="none" xmlns="http://www.w3.org/2000/svg">
<mask id="mask0_2323_35800" style="mask-type:alpha" maskUnits="userSpaceOnUse" x="0" y="0" width="20" height="20">
<path d="M8.33333 4.99996C8.33333 4.53972 8.70643 4.16663 9.16666 4.16663H10.8333C11.2936 4.16663 11.6667 4.53972 11.6667 4.99996C11.6667 5.4602 11.2936 5.8333 10.8333 5.8333H9.16666C8.70643 5.8333 8.33333 5.4602 8.33333 4.99996Z" fill="black"/>
<path fill-rule="evenodd" clip-rule="evenodd" d="M9.10786 1.66663L12.1119 1.66663C12.67 1.66662 13.1308 1.66662 13.5079 1.69235C13.899 1.71903 14.2608 1.77614 14.6089 1.92036C15.4257 2.25868 16.0746 2.90759 16.4129 3.72435C16.5572 4.07253 16.6143 4.43428 16.6409 4.82535C16.6667 5.20252 16.6667 5.66324 16.6667 6.2214L16.6667 12.5588C16.6667 13.6872 16.6667 14.6177 16.5677 15.3542C16.4638 16.1274 16.2371 16.8102 15.6904 17.357C15.1436 17.9037 14.4607 18.1304 13.6876 18.2343C12.9511 18.3334 12.0206 18.3333 10.8922 18.3333H9.10788C7.97945 18.3333 7.04891 18.3334 6.31245 18.2343C5.53925 18.1304 4.8564 17.9037 4.30964 17.357C3.76288 16.8102 3.53624 16.1274 3.43229 15.3542C3.33328 14.6177 3.3333 13.6872 3.33333 12.5588V7.44115C3.3333 6.31273 3.33328 5.3822 3.43229 4.64574C3.53624 3.87255 3.76288 3.1897 4.30964 2.64294C4.8564 2.09618 5.53925 1.86954 6.31245 1.76559C7.0489 1.66657 7.97943 1.6666 9.10786 1.66663ZM6.53452 3.41739C5.94615 3.4965 5.67363 3.63598 5.48815 3.82145C5.30268 4.00693 5.1632 4.27944 5.0841 4.86782C5.00177 5.48017 5 6.29789 5 7.49996V12.5C5 12.8009 5.00011 13.0777 5.00157 13.3333H14.9984C14.9999 13.0777 15 12.8009 15 12.5V6.24996C15 5.65613 14.9995 5.2525 14.9781 4.9388C14.9573 4.63259 14.9192 4.47341 14.8731 4.36216C14.704 3.95378 14.3795 3.62932 13.9711 3.46016C13.8599 3.41408 13.7007 3.37604 13.3945 3.35515C13.0808 3.33375 12.6772 3.3333 12.0833 3.3333H9.16666C7.96459 3.3333 7.14687 3.33507 6.53452 3.41739ZM14.9321 15H5.06791C5.07293 15.0451 5.07831 15.0891 5.0841 15.1321C5.1632 15.7205 5.30268 15.993 5.48815 16.1785C5.67363 16.3639 5.94615 16.5034 6.53452 16.5825C7.14687 16.6649 7.96459 16.6666 9.16666 16.6666H10.8333C12.0354 16.6666 12.8531 16.6649 13.4655 16.5825C14.0538 16.5034 14.3264 16.3639 14.5118 16.1785C14.6973 15.993 14.8368 15.7205 14.9159 15.1321C14.9217 15.0891 14.9271 15.0451 14.9321 15Z" fill="black"/>
</mask>
<g mask="url(#mask0_2323_35800)">
<rect width="20" height="20" fill="#000E18" fill-opacity="0.593"/>
</g>
</svg>
