<svg width="20" height="20" viewBox="0 0 20 20" fill="none" xmlns="http://www.w3.org/2000/svg">
<path fill-rule="evenodd" clip-rule="evenodd" d="M10.21 8.79956L12.7457 6.28634C12.9429 6.07924 13.1748 5.91548 13.4281 5.79697C13.7511 5.64583 14.1088 5.56828 14.4735 5.56828H14.9672L11.8032 2.40432C10.8159 1.41698 9.20025 1.41698 8.21291 2.40432L5.02651 5.59072H5.34067C5.75348 5.59072 6.14823 5.69005 6.50201 5.88299C6.70592 5.99419 6.89621 6.13649 7.0685 6.30878L9.55928 8.79956C9.7388 8.97908 10.0305 8.97908 10.21 8.79956ZM7.41008 4.97492C7.60185 5.10564 7.78335 5.25586 7.95239 5.4249L9.88713 7.35964L11.8543 5.40983C12.0538 5.20277 12.2739 5.02536 12.5086 4.87744L10.9193 3.2882C10.4202 2.78902 9.59598 2.78902 9.0968 3.2882L7.41008 4.97492Z" fill="#4BB8A9"/>
<path fill-rule="evenodd" clip-rule="evenodd" d="M5.02651 14.4093L8.19047 17.5957C9.17781 18.583 10.7934 18.583 11.7808 17.5957L14.9447 14.4317H14.4511C14.0839 14.4317 13.7311 14.3532 13.4086 14.2001C13.1596 14.0818 12.9286 13.9191 12.7232 13.7137L10.21 11.2005C10.0305 11.0209 9.7388 11.0209 9.55928 11.2005L7.0685 13.6912C6.90197 13.8661 6.71072 14.0101 6.50277 14.122C6.15033 14.3117 5.74993 14.4093 5.34067 14.4093H5.02651ZM7.40768 15.0333L9.07569 16.7131C9.575 17.211 10.3982 17.2106 10.8969 16.7118L12.49 15.1187C12.2581 14.9722 12.0399 14.7981 11.8394 14.5976L9.88465 12.6429L7.96198 14.5655C7.79111 14.7432 7.60511 14.8991 7.40768 15.0333Z" fill="#4BB8A9"/>
<path fill-rule="evenodd" clip-rule="evenodd" d="M13.2394 13.2203L10.7486 10.6846C10.5168 10.4528 10.1952 10.3408 9.87346 10.3484C9.5723 10.3556 9.27104 10.4677 9.0432 10.6846L6.55242 13.1754C6.23827 13.4896 5.78948 13.6691 5.34069 13.6691H4.30848L2.42357 11.7842C1.41379 10.7968 1.41379 9.20364 2.40113 8.2163L4.28604 6.33139H5.31825C5.76704 6.33139 6.21583 6.5109 6.52998 6.82506L9.02076 9.31583C9.24516 9.54023 9.55931 9.67487 9.87346 9.67487C10.1876 9.67487 10.4793 9.56267 10.7262 9.31583L13.2394 6.80262C13.5535 6.48847 14.0023 6.30895 14.4511 6.30895H15.6853L17.5926 8.2163C18.58 9.20364 18.58 10.8193 17.5926 11.8066L15.6853 13.714H14.4511C14.0023 13.714 13.5535 13.5344 13.2394 13.2203ZM5.6461 7.70894L7.94862 10.0115L5.66854 12.2915C5.59834 12.3617 5.47169 12.4191 5.34069 12.4191H4.82625L3.30248 10.8953L3.29746 10.8904C2.78737 10.3917 2.78758 9.59761 3.28501 9.10019L4.80381 7.58139H5.31825C5.44925 7.58139 5.5759 7.63874 5.6461 7.70894ZM14.1257 12.3388L11.8191 9.99066L14.1233 7.6865C14.1935 7.6163 14.3201 7.55895 14.4511 7.55895H15.1675L16.7087 9.10019C17.2079 9.59937 17.2079 10.4235 16.7087 10.9227L15.1675 12.464H14.4511C14.3216 12.464 14.1964 12.4079 14.1257 12.3388Z" fill="#4BB8A9"/>
</svg>
