<svg width="20" height="20" viewBox="0 0 20 20" fill="none" xmlns="http://www.w3.org/2000/svg">
<mask id="mask0_2323_35006" style="mask-type:alpha" maskUnits="userSpaceOnUse" x="0" y="0" width="20" height="20">
<path fill-rule="evenodd" clip-rule="evenodd" d="M10.21 8.79947L12.7457 6.28625C12.9429 6.07915 13.1749 5.91539 13.4281 5.79687C13.7511 5.64573 14.1088 5.56819 14.4735 5.56819H14.9672L11.8032 2.40423C10.8159 1.41689 9.20026 1.41689 8.21292 2.40423L5.02652 5.59063H5.34067C5.75349 5.59063 6.14824 5.68996 6.50202 5.8829C6.70592 5.9941 6.89622 6.1364 7.06851 6.30869L9.55929 8.79947C9.7388 8.97899 10.0305 8.97899 10.21 8.79947ZM7.41009 4.97483C7.60185 5.10555 7.78335 5.25577 7.95239 5.42481L9.88713 7.35955L11.8544 5.40974C12.0538 5.20268 12.2739 5.02527 12.5086 4.87735L10.9193 3.28811C10.4202 2.78893 9.59599 2.78893 9.0968 3.28811L7.41009 4.97483Z" fill="#222730"/>
<path fill-rule="evenodd" clip-rule="evenodd" d="M5.02652 14.4092L8.19048 17.5956C9.17782 18.5829 10.7935 18.5829 11.7808 17.5956L14.9448 14.4317H14.4511C14.0839 14.4317 13.7311 14.3531 13.4087 14.2C13.1596 14.0817 12.9286 13.919 12.7232 13.7136L10.21 11.2004C10.0305 11.0209 9.7388 11.0209 9.55929 11.2004L7.06851 13.6911C6.90198 13.866 6.71072 14.01 6.50278 14.1219C6.15034 14.3116 5.74994 14.4092 5.34067 14.4092H5.02652ZM7.40769 15.0332L9.0757 16.7131C9.57501 17.2109 10.3982 17.2105 10.8969 16.7117L12.4901 15.1186C12.2581 14.9721 12.0399 14.798 11.8394 14.5975L9.88466 12.6428L7.96199 14.5654C7.79112 14.7431 7.60512 14.899 7.40769 15.0332Z" fill="#222730"/>
<path fill-rule="evenodd" clip-rule="evenodd" d="M13.2394 13.2202L10.7486 10.6845C10.5168 10.4527 10.1952 10.3407 9.87347 10.3483C9.57231 10.3555 9.27104 10.4676 9.04321 10.6845L6.55243 13.1753C6.23828 13.4895 5.78949 13.669 5.3407 13.669H4.30849L2.42357 11.7841C1.4138 10.7967 1.4138 9.20355 2.40113 8.21621L4.28605 6.3313H5.31826C5.76705 6.3313 6.21584 6.51081 6.52999 6.82497L9.02077 9.31574C9.24516 9.54014 9.55932 9.67477 9.87347 9.67477C10.1876 9.67477 10.4793 9.56258 10.7262 9.31574L13.2394 6.80253C13.5535 6.48837 14.0023 6.30886 14.4511 6.30886H15.6853L17.5926 8.21621C18.58 9.20355 18.58 10.8192 17.5926 11.8065L15.6853 13.7139H14.4511C14.0023 13.7139 13.5535 13.5344 13.2394 13.2202ZM5.64611 7.70885L7.94863 10.0114L5.66855 12.2914C5.59835 12.3616 5.4717 12.419 5.3407 12.419H4.82625L3.30249 10.8952L3.29747 10.8903C2.78738 10.3916 2.78759 9.59752 3.28502 9.10009L4.80381 7.5813H5.31826C5.44926 7.5813 5.57591 7.63865 5.64611 7.70885ZM14.1257 12.3387L11.8191 9.99057L14.1233 7.68641C14.1935 7.61621 14.3201 7.55886 14.4511 7.55886H15.1675L16.7088 9.10009C17.2079 9.59928 17.2079 10.4235 16.7088 10.9226L15.1675 12.4639H14.4511C14.3216 12.4639 14.1964 12.4078 14.1257 12.3387Z" fill="#222730"/>
</mask>
<g mask="url(#mask0_2323_35006)">
<rect width="20" height="20" fill="#1C2024"/>
</g>
</svg>
