<svg width="16" height="16" viewBox="0 0 16 16" fill="none" xmlns="http://www.w3.org/2000/svg">
<mask id="mask0_2323_35729" style="mask-type:alpha" maskUnits="userSpaceOnUse" x="0" y="0" width="16" height="16">
<path fill-rule="evenodd" clip-rule="evenodd" d="M2.36853 2.43895C2.70732 1.76138 3.39984 1.33337 4.15739 1.33337H11.8426C12.6002 1.33337 13.2927 1.76138 13.6315 2.43895L14.9263 5.02865C14.9467 5.06736 14.9662 5.10657 14.9853 5.14593C15.0208 5.21929 15.0686 5.32208 15.1168 5.43958C15.2005 5.64364 15.3333 6.00181 15.3333 6.33338C15.3333 7.26418 14.7883 8.06768 14 8.44217V12.6667C14 13.7713 13.1046 14.6667 12 14.6667H4.00001C2.89544 14.6667 2.00001 13.7713 2.00001 12.6667V8.44217C1.21169 8.06768 0.666672 7.26418 0.666672 6.33338C0.666672 6.00181 0.79951 5.64364 0.883241 5.43958C0.931453 5.32208 0.97917 5.21929 1.01475 5.14593C1.03388 5.10649 1.05336 5.06719 1.07381 5.0284L2.36853 2.43895ZM3.33334 8.64309V12.6667C3.33334 13.0349 3.63182 13.3334 4.00001 13.3334H5.33335L5.33334 11.9638C5.33329 11.6811 5.33323 11.4063 5.3637 11.1797C5.39805 10.9242 5.48173 10.6327 5.72387 10.3906C5.96602 10.1484 6.25753 10.0647 6.513 10.0304C6.73961 9.99994 7.01436 9.99999 7.29708 10H8.70295C8.98567 9.99999 9.26042 9.99994 9.48703 10.0304C9.7425 10.0647 10.034 10.1484 10.2762 10.3906C10.5183 10.6327 10.602 10.9242 10.6363 11.1797C10.6668 11.4063 10.6667 11.6811 10.6667 11.9638L10.6667 13.3334H12C12.3682 13.3334 12.6667 13.0349 12.6667 12.6667V8.64309C12.1475 8.56882 11.6834 8.32364 11.3333 7.96637C10.9098 8.39855 10.3196 8.66671 9.66667 8.66671C9.01378 8.66671 8.42351 8.39855 8.00001 7.96637C7.5765 8.39855 6.98624 8.66671 6.33334 8.66671C5.68044 8.66671 5.09018 8.39855 4.66668 7.96637C4.31658 8.32364 3.85253 8.56882 3.33334 8.64309ZM12.4389 3.03523L13.7361 5.62961C13.739 5.6355 13.742 5.64137 13.7452 5.64722L13.7464 5.6495L13.7542 5.6646C13.7614 5.67869 13.7723 5.70029 13.7856 5.72779C13.8125 5.78329 13.8481 5.86014 13.8832 5.94573C13.9189 6.03254 13.9507 6.12032 13.9727 6.19897C13.9836 6.23781 13.9909 6.27013 13.9953 6.29567C13.9999 6.32209 14 6.33338 14 6.33338C14 6.88567 13.5523 7.33338 13 7.33338C12.4477 7.33338 12 6.88567 12 6.33337C12 5.96518 11.7015 5.66671 11.3333 5.66671C10.9651 5.66671 10.6667 5.96518 10.6667 6.33337C10.6667 6.88566 10.219 7.33337 9.66667 7.33337C9.11439 7.33337 8.66667 6.88566 8.66667 6.33337C8.66667 5.96518 8.36819 5.66671 8.00001 5.66671C7.63182 5.66671 7.33334 5.96518 7.33334 6.33337C7.33334 6.88566 6.88562 7.33337 6.33334 7.33337C5.78105 7.33337 5.33334 6.88566 5.33334 6.33337C5.33334 6.28735 5.32867 6.24242 5.31979 6.19903C5.25763 5.89523 4.98884 5.66671 4.66667 5.66671C4.35713 5.66671 4.09686 5.87767 4.0218 6.16366C4.01316 6.19659 4.00697 6.23051 4.00345 6.26522C4.00117 6.28763 4.00001 6.31037 4.00001 6.33338C4.00001 6.88567 3.55229 7.33338 3.00001 7.33338C2.44772 7.33338 2.00001 6.88567 2.00001 6.33338C2.00001 6.33338 2.00014 6.32209 2.00468 6.29567C2.00907 6.27013 2.01638 6.23781 2.02729 6.19897C2.04936 6.12032 2.08115 6.03254 2.11677 5.94573C2.15189 5.86014 2.18751 5.78329 2.21443 5.72779C2.22776 5.70029 2.23865 5.67869 2.24585 5.6646L2.25366 5.6495L2.25466 5.64758C2.25749 5.64228 2.26026 5.63692 2.26296 5.63152L3.5611 3.03523C3.67403 2.80938 3.90487 2.66671 4.15739 2.66671H11.8426C12.0951 2.66671 12.326 2.80938 12.4389 3.03523ZM9.33335 13.3334H6.66668V12.0001C6.66668 11.6669 6.6681 11.4842 6.68514 11.3574L6.68581 11.3525L6.69067 11.3518C6.81746 11.3348 7.00023 11.3334 7.33335 11.3334H8.66668C8.9998 11.3334 9.18257 11.3348 9.30936 11.3518L9.31422 11.3525L9.31489 11.3574C9.33193 11.4842 9.33335 11.6669 9.33335 12.0001V13.3334Z" fill="#222730"/>
</mask>
<g mask="url(#mask0_2323_35729)">
<rect width="16" height="16" fill="#00713F" fill-opacity="0.870588"/>
</g>
</svg>
