<svg width="20" height="20" viewBox="0 0 20 20" fill="none" xmlns="http://www.w3.org/2000/svg">
<mask id="mask0_2323_35018" style="mask-type:alpha" maskUnits="userSpaceOnUse" x="0" y="0" width="20" height="20">
<path fill-rule="evenodd" clip-rule="evenodd" d="M15.4167 14.1667C15.4167 14.6269 15.0436 15 14.5833 15H5.34519L7.25594 16.9107C7.58138 17.2362 7.58138 17.7638 7.25594 18.0892C6.9305 18.4147 6.40286 18.4147 6.07743 18.0892L2.74409 14.7559C2.58764 14.5995 2.49983 14.3872 2.50002 14.166C2.5002 13.9447 2.58836 13.7326 2.74507 13.5764L6.08941 10.2431C6.41538 9.9182 6.94302 9.91907 7.26792 10.245C7.59282 10.571 7.59195 11.0987 7.26598 11.4236L5.3499 13.3333H14.5833C15.0436 13.3333 15.4167 13.7064 15.4167 14.1667Z" fill="#222730"/>
<path fill-rule="evenodd" clip-rule="evenodd" d="M17.5 5.83332C17.5 6.05482 17.4118 6.2672 17.255 6.42355L13.9106 9.75689C13.5846 10.0818 13.0569 10.0809 12.732 9.75493C12.4072 9.42896 12.408 8.90132 12.734 8.57642L14.6501 6.66666H5.41668C4.95644 6.66666 4.58335 6.29356 4.58335 5.83332C4.58335 5.37309 4.95644 4.99999 5.41668 4.99999L14.6501 4.99999L12.734 3.09022C12.408 2.76532 12.4072 2.23769 12.732 1.91171C13.0569 1.58574 13.5846 1.58486 13.9106 1.90976L17.255 5.24309C17.4118 5.39945 17.5 5.61183 17.5 5.83332Z" fill="#222730"/>
</mask>
<g mask="url(#mask0_2323_35018)">
<rect width="20" height="20" fill="#1C2024"/>
</g>
</svg>
