<svg width="20" height="20" viewBox="0 0 20 20" fill="none" xmlns="http://www.w3.org/2000/svg">
<mask id="mask0_2323_35042" style="mask-type:alpha" maskUnits="userSpaceOnUse" x="0" y="0" width="20" height="20">
<path d="M10 2.5C10.4602 2.5 10.8333 2.8731 10.8333 3.33333V3.75C10.8333 3.76804 10.8328 3.78595 10.8316 3.8037C11.8355 3.94487 12.6105 4.3487 13.0893 4.82741C13.4147 5.15285 13.4147 5.68049 13.0893 6.00592C12.7638 6.33136 12.2362 6.33136 11.9107 6.00592C11.6743 5.7695 11.0654 5.41667 10.0472 5.41667C9.52028 5.41667 9.036 5.51119 8.71584 5.68259C8.43653 5.83212 8.33333 5.99845 8.33333 6.25C8.33333 6.33317 8.37597 6.50489 8.88121 6.72031C9.10364 6.81515 9.35249 6.88858 9.59738 6.95173C9.65568 6.96677 9.72292 6.98325 9.79301 7.00044C9.96157 7.04176 10.1466 7.08714 10.2635 7.1261C10.3178 7.14419 10.3868 7.16092 10.4951 7.18716C10.577 7.207 10.6814 7.23229 10.8188 7.26773C11.0916 7.33807 11.4351 7.43606 11.7725 7.5799C12.3868 7.84184 13.3333 8.4165 13.3333 9.58333C13.3333 10.5466 12.8304 11.222 12.1441 11.6106C11.7432 11.8376 11.2864 11.9663 10.8317 12.0304C10.8328 12.0479 10.8333 12.0656 10.8333 12.0833V12.5C10.8333 12.9602 10.4602 13.3333 10 13.3333C9.53976 13.3333 9.16667 12.9602 9.16667 12.5V12.0833C9.16667 12.0616 9.1675 12.0401 9.16913 12.0188C8.18218 11.8705 7.38595 11.4811 6.91074 11.0059C6.58531 10.6805 6.58531 10.1528 6.91074 9.82741C7.23618 9.50197 7.76382 9.50197 8.08926 9.82741C8.31331 10.0515 8.98445 10.4167 10.0472 10.4167C10.5883 10.4167 11.0386 10.3212 11.3229 10.1603C11.5564 10.028 11.6667 9.8701 11.6667 9.58333C11.6667 9.50017 11.624 9.32844 11.1188 9.11302C10.8964 9.01818 10.6475 8.94475 10.4026 8.8816C10.3443 8.86656 10.2771 8.85008 10.207 8.83289C10.0384 8.79157 9.85336 8.7462 9.73648 8.70724C9.68219 8.68914 9.61317 8.67242 9.50489 8.64618C9.42299 8.62633 9.31864 8.60105 9.1812 8.5656C8.90843 8.49527 8.56489 8.39728 8.22753 8.25344C7.61319 7.9915 6.66667 7.41683 6.66667 6.25C6.66667 5.25155 7.23564 4.58454 7.92921 4.21324C8.31236 4.00812 8.74258 3.88419 9.16931 3.81681C9.16756 3.79477 9.16667 3.77249 9.16667 3.75V3.33333C9.16667 2.8731 9.53976 2.5 10 2.5Z" fill="#222730"/>
<path d="M3.33333 11.25C3.33333 10.7898 2.96024 10.4167 2.5 10.4167C2.03976 10.4167 1.66667 10.7898 1.66667 11.25L1.66667 12.1421C1.66664 13.2706 1.66661 14.2011 1.76563 14.9376C1.86958 15.7107 2.09622 16.3936 2.64298 16.9404C3.18974 17.4871 3.87259 17.7138 4.64578 17.8177C5.38224 17.9167 6.31276 17.9167 7.44119 17.9167H12.5588C13.6872 17.9167 14.6178 17.9167 15.3542 17.8177C16.1274 17.7138 16.8103 17.4871 17.357 16.9404C17.9038 16.3936 18.1304 15.7107 18.2344 14.9376C18.3334 14.2011 18.3334 13.2706 18.3333 12.1422V11.25C18.3333 10.7898 17.9602 10.4167 17.5 10.4167C17.0398 10.4167 16.6667 10.7898 16.6667 11.25V12.0833C16.6667 13.2854 16.6649 14.1031 16.5826 14.7155C16.5035 15.3039 16.364 15.5764 16.1785 15.7618C15.993 15.9473 15.7205 16.0868 15.1321 16.1659C14.5198 16.2482 13.7021 16.25 12.5 16.25H7.5C6.29793 16.25 5.48021 16.2482 4.86786 16.1659C4.27948 16.0868 4.00696 15.9473 3.82149 15.7618C3.63601 15.5764 3.49654 15.3039 3.41743 14.7155C3.3351 14.1031 3.33333 13.2854 3.33333 12.0833V11.25Z" fill="#222730"/>
</mask>
<g mask="url(#mask0_2323_35042)">
<rect width="20" height="20" fill="#1C2024"/>
</g>
</svg>
