<svg width="16" height="16" viewBox="0 0 16 16" fill="none" xmlns="http://www.w3.org/2000/svg">
<mask id="mask0_30361_6187" style="mask-type:alpha" maskUnits="userSpaceOnUse" x="0" y="0" width="16" height="16">
<path d="M8.59997 4.70003C8.59997 4.36866 8.33134 4.10003 7.99997 4.10003C7.6686 4.10003 7.39997 4.36866 7.39997 4.70003V5.00003C7.39997 5.01623 7.40061 5.03227 7.40187 5.04814C7.09463 5.09665 6.78487 5.18588 6.509 5.33356C6.00964 5.6009 5.59997 6.08115 5.59997 6.80003C5.59997 7.64015 6.28147 8.05391 6.72379 8.24251C6.96669 8.34607 7.21405 8.41662 7.41044 8.46727C7.50927 8.49275 7.58435 8.51095 7.64328 8.52523C7.72125 8.54412 7.77115 8.55621 7.81024 8.56924C7.89437 8.59729 8.02755 8.62994 8.14889 8.65969C8.19933 8.67205 8.2479 8.68396 8.28986 8.69478C8.46618 8.74025 8.64535 8.79313 8.8055 8.86141C9.16927 9.01651 9.19997 9.14015 9.19997 9.20003C9.19997 9.40651 9.12057 9.52022 8.95245 9.61542C8.74779 9.73131 8.42357 9.80003 8.03393 9.80003C7.26877 9.80003 6.78555 9.53708 6.62424 9.37577C6.38992 9.14145 6.01002 9.14145 5.77571 9.37577C5.54139 9.61008 5.54139 9.98998 5.77571 10.2243C6.11785 10.5664 6.69114 10.8468 7.40175 10.9536C7.40057 10.9689 7.39997 10.9844 7.39997 11V11.3C7.39997 11.6314 7.6686 11.9 7.99997 11.9C8.33134 11.9 8.59997 11.6314 8.59997 11.3V11C8.59997 10.9872 8.59957 10.9745 8.59878 10.9619C8.92615 10.9158 9.25507 10.8231 9.54372 10.6596C10.0379 10.3798 10.4 9.89356 10.4 9.20003C10.4 8.35991 9.71848 7.94615 9.27615 7.75756C9.03325 7.65399 8.7859 7.58344 8.58951 7.5328C8.49063 7.5073 8.41553 7.4891 8.35659 7.47482C8.27863 7.45593 8.2288 7.44385 8.18971 7.43082C8.10555 7.40277 7.97231 7.3701 7.85094 7.34035C7.80051 7.32799 7.75203 7.3161 7.71008 7.30528C7.53376 7.25981 7.35459 7.20694 7.19444 7.13866C6.83067 6.98355 6.79997 6.85991 6.79997 6.80003C6.79997 6.61892 6.87427 6.49916 7.07537 6.3915C7.30589 6.26809 7.65457 6.20003 8.03393 6.20003C8.76703 6.20003 9.20549 6.45407 9.37571 6.6243C9.61002 6.85861 9.98992 6.85861 10.2242 6.6243C10.4586 6.38998 10.4586 6.01008 10.2242 5.77577C9.87957 5.4311 9.32152 5.14034 8.59875 5.0387C8.59956 5.02591 8.59997 5.01302 8.59997 5.00003V4.70003Z" fill="#222730"/>
<path fill-rule="evenodd" clip-rule="evenodd" d="M8 1.33325C4.3181 1.33325 1.33333 4.31802 1.33333 7.99992C1.33333 11.6818 4.3181 14.6666 8 14.6666C11.6819 14.6666 14.6667 11.6818 14.6667 7.99992C14.6667 4.31802 11.6819 1.33325 8 1.33325ZM2.66667 7.99992C2.66667 5.0544 5.05448 2.66659 8 2.66659C10.9455 2.66659 13.3333 5.0544 13.3333 7.99992C13.3333 10.9454 10.9455 13.3333 8 13.3333C5.05448 13.3333 2.66667 10.9454 2.66667 7.99992Z" fill="#222730"/>
</mask>
<g mask="url(#mask0_30361_6187)">
<rect width="16" height="16" fill="#000714" fill-opacity="0.6435"/>
</g>
</svg>
