<svg width="20" height="20" viewBox="0 0 20 20" fill="none" xmlns="http://www.w3.org/2000/svg">
<path d="M11.0292 14.1379C11.0292 14.7016 10.5721 15.1587 10.0083 15.1587H9.98928C9.42549 15.1587 8.96845 14.7016 8.96845 14.1379C8.96845 13.5741 9.42549 13.117 9.98928 13.117H10.0083C10.5721 13.117 11.0292 13.5741 11.0292 14.1379Z" fill="#8D3500" fill-opacity="0.980392"/>
<path d="M9.16429 10.8044C9.16429 11.2647 9.53738 11.6378 9.99762 11.6378C10.4579 11.6378 10.831 11.2647 10.831 10.8044V7.47111C10.831 7.01087 10.4579 6.63778 9.99762 6.63778C9.53738 6.63778 9.16429 7.01087 9.16429 7.47111V10.8044Z" fill="#8D3500" fill-opacity="0.980392"/>
<path fill-rule="evenodd" clip-rule="evenodd" d="M7.83495 3.75C8.7972 2.08333 11.2028 2.08333 12.1651 3.75L17.9386 13.75C18.9008 15.4167 17.698 17.5 15.7735 17.5H4.22651C2.30201 17.5 1.09919 15.4167 2.06144 13.75L7.83495 3.75ZM10.7217 4.58333C10.4009 4.02778 9.59907 4.02778 9.27832 4.58333L3.50482 14.5833C3.18407 15.1389 3.58501 15.8333 4.22651 15.8333H15.7735C16.415 15.8333 16.8159 15.1389 16.4952 14.5833L10.7217 4.58333Z" fill="#8D3500" fill-opacity="0.980392"/>
</svg>
