<svg width="20" height="20" viewBox="0 0 20 20" fill="none" xmlns="http://www.w3.org/2000/svg">
<mask id="mask0_2323_665" style="mask-type:alpha" maskUnits="userSpaceOnUse" x="0" y="0" width="20" height="20">
<path d="M10.0003 2.5C10.4606 2.5 10.8337 2.8731 10.8337 3.33333V3.75C10.8337 3.76804 10.8331 3.78595 10.832 3.8037C11.8358 3.94487 12.6109 4.3487 13.0896 4.82741C13.415 5.15285 13.415 5.68049 13.0896 6.00592C12.7641 6.33136 12.2365 6.33136 11.9111 6.00592C11.6747 5.7695 11.0657 5.41667 10.0475 5.41667C9.52061 5.41667 9.03633 5.51119 8.71616 5.68259C8.43685 5.83212 8.33366 5.99845 8.33366 6.25C8.33366 6.33317 8.3763 6.50489 8.88154 6.72031C9.10397 6.81515 9.35282 6.88858 9.59771 6.95173C9.65601 6.96677 9.72325 6.98325 9.79334 7.00044C9.9619 7.04176 10.147 7.08714 10.2639 7.1261C10.3181 7.14419 10.3872 7.16092 10.4954 7.18716C10.5773 7.207 10.6817 7.23229 10.8191 7.26773C11.0919 7.33807 11.4354 7.43606 11.7728 7.5799C12.3871 7.84184 13.3337 8.4165 13.3337 9.58333C13.3337 10.5466 12.8307 11.222 12.1444 11.6106C11.7435 11.8376 11.2867 11.9663 10.832 12.0304C10.8331 12.0479 10.8337 12.0656 10.8337 12.0833V12.5C10.8337 12.9602 10.4606 13.3333 10.0003 13.3333C9.54009 13.3333 9.16699 12.9602 9.16699 12.5V12.0833C9.16699 12.0616 9.16783 12.0401 9.16946 12.0188C8.18251 11.8705 7.38627 11.4811 6.91107 11.0059C6.58564 10.6805 6.58564 10.1528 6.91107 9.82741C7.23651 9.50197 7.76415 9.50197 8.08958 9.82741C8.31364 10.0515 8.98478 10.4167 10.0475 10.4167C10.5887 10.4167 11.039 10.3212 11.3232 10.1603C11.5567 10.028 11.667 9.8701 11.667 9.58333C11.667 9.50017 11.6244 9.32844 11.1191 9.11302C10.8967 9.01818 10.6478 8.94475 10.403 8.8816C10.3446 8.86656 10.2774 8.85008 10.2073 8.83289C10.0388 8.79157 9.85368 8.7462 9.73681 8.70724C9.68252 8.68914 9.6135 8.67242 9.50522 8.64618C9.42332 8.62633 9.31896 8.60105 9.18153 8.5656C8.90876 8.49527 8.56522 8.39728 8.22785 8.25344C7.61352 7.9915 6.66699 7.41683 6.66699 6.25C6.66699 5.25155 7.23597 4.58454 7.92954 4.21324C8.31269 4.00812 8.74291 3.88419 9.16963 3.81681C9.16789 3.79477 9.16699 3.77249 9.16699 3.75V3.33333C9.16699 2.8731 9.54009 2.5 10.0003 2.5Z" fill="#222730"/>
<path d="M3.33366 11.25C3.33366 10.7898 2.96057 10.4167 2.50033 10.4167C2.04009 10.4167 1.667 10.7898 1.667 11.25L1.66699 12.1421C1.66696 13.2706 1.66694 14.2011 1.76596 14.9376C1.86991 15.7107 2.09655 16.3936 2.64331 16.9404C3.19006 17.4871 3.87292 17.7138 4.64611 17.8177C5.38257 17.9167 6.31308 17.9167 7.44152 17.9167H12.5591C13.6876 17.9167 14.6181 17.9167 15.3545 17.8177C16.1277 17.7138 16.8106 17.4871 17.3574 16.9404C17.9041 16.3936 18.1307 15.7107 18.2347 14.9376C18.3337 14.2011 18.3337 13.2706 18.3337 12.1422V11.25C18.3337 10.7898 17.9606 10.4167 17.5003 10.4167C17.0401 10.4167 16.667 10.7898 16.667 11.25V12.0833C16.667 13.2854 16.6652 14.1031 16.5829 14.7155C16.5038 15.3039 16.3643 15.5764 16.1788 15.7618C15.9934 15.9473 15.7208 16.0868 15.1325 16.1659C14.5201 16.2482 13.7024 16.25 12.5003 16.25H7.50033C6.29826 16.25 5.48054 16.2482 4.86819 16.1659C4.27981 16.0868 4.00729 15.9473 3.82182 15.7618C3.63634 15.5764 3.49687 15.3039 3.41776 14.7155C3.33543 14.1031 3.33366 13.2854 3.33366 12.0833V11.25Z" fill="#222730"/>
</mask>
<g mask="url(#mask0_2323_665)">
<rect width="20" height="20" fill="#1C2024"/>
</g>
</svg>
