<svg width="20" height="20" viewBox="0 0 20 20" fill="none" xmlns="http://www.w3.org/2000/svg">
<path fill-rule="evenodd" clip-rule="evenodd" d="M4.61161 6.8094C3.1962 7.88486 2.50001 9.12697 2.50001 10C2.50001 10.8731 3.1962 12.1152 4.61161 13.1907C5.98813 14.2366 7.89714 15 10 15C12.1029 15 14.0119 14.2366 15.3884 13.1907C16.8038 12.1152 17.5 10.8731 17.5 10C17.5 9.12697 16.8038 7.88486 15.3884 6.8094C14.0119 5.7635 12.1029 5.00004 10 5.00004C7.89714 5.00004 5.98813 5.7635 4.61161 6.8094ZM3.60329 5.48235C5.24285 4.23659 7.50051 3.33337 10 3.33337C12.4995 3.33337 14.7572 4.23659 16.3967 5.48235C17.9974 6.69856 19.1667 8.37311 19.1667 10C19.1667 11.627 17.9974 13.3015 16.3967 14.5177C14.7572 15.7635 12.4995 16.6667 10 16.6667C7.50051 16.6667 5.24285 15.7635 3.60329 14.5177C2.00263 13.3015 0.833344 11.627 0.833344 10C0.833344 8.37311 2.00263 6.69856 3.60329 5.48235Z" fill="white"/>
<path fill-rule="evenodd" clip-rule="evenodd" d="M10 8.33337C9.07954 8.33337 8.33334 9.07957 8.33334 10C8.33334 10.9205 9.07954 11.6667 10 11.6667C10.9205 11.6667 11.6667 10.9205 11.6667 10C11.6667 9.07957 10.9205 8.33337 10 8.33337ZM6.66668 10C6.66668 8.15909 8.15906 6.66671 10 6.66671C11.841 6.66671 13.3333 8.15909 13.3333 10C13.3333 11.841 11.841 13.3334 10 13.3334C8.15906 13.3334 6.66668 11.841 6.66668 10Z" fill="white"/>
</svg>
