<svg width="20" height="20" viewBox="0 0 20 20" fill="none" xmlns="http://www.w3.org/2000/svg">
<path d="M3.26784 6.3426C3.08871 5.91864 2.59983 5.72017 2.17588 5.89929C1.75193 6.07841 1.55345 6.5673 1.73258 6.99125C2.32158 8.38533 3.25319 9.5999 4.4221 10.5291L3.44517 12.2212C3.21505 12.6198 3.35161 13.1294 3.75019 13.3595C4.14877 13.5897 4.65843 13.4531 4.88855 13.0545L5.81951 11.442C6.83544 11.9781 7.96684 12.325 9.16686 12.4355V13.7502C9.16686 14.2105 9.53996 14.5836 10.0002 14.5836C10.4604 14.5836 10.8335 14.2105 10.8335 13.7502V12.4355C12.0964 12.3192 13.2834 11.9411 14.3397 11.3562L15.3202 13.0545C15.5503 13.4531 16.06 13.5897 16.4585 13.3595C16.8571 13.1294 16.9937 12.6198 16.7635 12.2212L15.7219 10.417L15.7201 10.414C16.8226 9.50052 17.7029 8.32847 18.2678 6.99125C18.447 6.5673 18.2485 6.07841 17.8245 5.89929C17.4006 5.72017 16.9117 5.91864 16.7326 6.3426C15.6235 8.96751 13.0257 10.807 10.0002 10.807C6.97468 10.807 4.37688 8.96751 3.26784 6.3426Z" fill="white"/>
</svg>
