<svg width="20" height="20" viewBox="0 0 20 20" fill="none" xmlns="http://www.w3.org/2000/svg">
<path fill-rule="evenodd" clip-rule="evenodd" d="M9.9855 3.33329C8.60599 3.33329 7.48768 4.45258 7.48768 5.83329C7.48768 7.214 8.60599 8.33329 9.9855 8.33329C11.365 8.33329 12.4833 7.214 12.4833 5.83329C12.4833 4.45258 11.365 3.33329 9.9855 3.33329ZM5.82247 5.83329C5.82247 3.53211 7.68632 1.66663 9.9855 1.66663C12.2847 1.66663 14.1485 3.53211 14.1485 5.83329C14.1485 8.13448 12.2847 9.99996 9.9855 9.99996C7.68632 9.99996 5.82247 8.13448 5.82247 5.83329Z" fill="white"/>
<path fill-rule="evenodd" clip-rule="evenodd" d="M3.33333 15.6363C3.33333 13.4637 5.09305 11.7024 7.26379 11.7024H12.7362C14.9069 11.7024 16.6667 13.4637 16.6667 15.6363C16.6667 17.124 15.4617 18.33 13.9753 18.33H6.02464C4.53827 18.33 3.33333 17.124 3.33333 15.6363ZM7.26379 13.3691C6.01273 13.3691 4.99854 14.3842 4.99854 15.6363C4.99854 16.2035 5.45794 16.6633 6.02464 16.6633H13.9753C14.542 16.6633 15.0014 16.2035 15.0014 15.6363C15.0014 14.3842 13.9873 13.3691 12.7362 13.3691H7.26379Z" fill="white"/>
</svg>
