<svg width="24" height="24" viewBox="0 0 24 24" fill="none" xmlns="http://www.w3.org/2000/svg">
<mask id="mask0_30361_8140" style="mask-type:alpha" maskUnits="userSpaceOnUse" x="0" y="0" width="24" height="24">
<path d="M10.2624 6.72225C9.71007 6.72225 9.26236 7.16997 9.26236 7.72225C9.26236 8.27454 9.71007 8.72225 10.2624 8.72225H17.0732C17.6254 8.72225 18.0732 8.27454 18.0732 7.72225C18.0732 7.16997 17.6254 6.72225 17.0732 6.72225H10.2624Z" fill="#222730"/>
<path d="M10.2624 10.5C9.71007 10.5 9.26236 10.9477 9.26236 11.5C9.26236 12.0523 9.71007 12.5 10.2624 12.5H17.0732C17.6254 12.5 18.0732 12.0523 18.0732 11.5C18.0732 10.9477 17.6254 10.5 17.0732 10.5H10.2624Z" fill="#222730"/>
<path fill-rule="evenodd" clip-rule="evenodd" d="M18.5326 21C19.3515 21 20.0636 20.7538 20.6188 20.2388C21.15 19.7461 21.4476 19.0902 21.6261 18.4318C21.9654 17.1804 21.9652 15.536 21.965 13.9671L21.965 5.0347C21.965 4.79026 21.965 4.56258 21.9532 4.37388C21.941 4.17782 21.9124 3.9319 21.808 3.68417C21.5036 2.96204 20.8055 2.48423 20.0221 2.46184C19.7534 2.45416 19.5138 2.51651 19.3266 2.57605C19.1464 2.63336 18.9342 2.71578 18.7063 2.80428L18.6813 2.81397C18.6028 2.84446 18.5637 2.85953 18.5349 2.86974L18.5326 2.87057L18.5302 2.86974C18.5014 2.85953 18.4623 2.84446 18.3838 2.81397L17.186 2.34889L17.1119 2.31989C16.835 2.21106 16.4832 2.07275 16.1001 2.07275C15.7171 2.07275 15.3652 2.21106 15.0884 2.31989L15.0143 2.34889L14.0296 2.7312C13.8379 2.80565 13.7423 2.84214 13.6716 2.86387L13.6677 2.86508L13.6637 2.86387C13.5931 2.84214 13.4975 2.80565 13.3057 2.7312L12.3211 2.34889L12.247 2.31989C11.9702 2.21106 11.6183 2.07275 11.2353 2.07275C10.8522 2.07275 10.5004 2.21106 10.2235 2.31989L10.1494 2.34889L8.95159 2.81397C8.87307 2.84446 8.83398 2.85953 8.80519 2.86974L8.80283 2.87057L8.80046 2.86974C8.77168 2.85953 8.73258 2.84446 8.65407 2.81397L8.62911 2.80428C8.40123 2.71579 8.189 2.63336 8.00882 2.57606C7.82162 2.51652 7.58203 2.45417 7.31331 2.46184C6.52995 2.48422 5.83183 2.96205 5.52744 3.6842C5.42302 3.93192 5.39442 4.17784 5.38217 4.37389C5.37038 4.56259 5.37039 4.79027 5.37041 5.03472L5.37041 14.2778L4.90129 14.2778C4.4649 14.2776 4.02073 14.2775 3.65183 14.3403C3.20778 14.416 2.74788 14.6005 2.39802 15.0509C2.0756 15.466 1.97881 15.9124 2.00372 16.3603C2.02318 16.7099 2.12237 17.0974 2.21183 17.4468L2.22715 17.5067C2.43162 18.3074 2.80091 19.1788 3.47525 19.8597C4.17576 20.567 5.13908 21 6.37041 21H18.5326ZM10.8733 4.21329C11.0651 4.13884 11.1607 4.10234 11.2313 4.08061L11.2353 4.07941L11.2392 4.08061C11.3098 4.10234 11.4055 4.13884 11.5972 4.21329L12.5818 4.5956L12.6559 4.6246C12.9328 4.73343 13.2847 4.87173 13.6677 4.87173C14.0507 4.87173 14.4026 4.73343 14.6794 4.6246L14.7535 4.5956L15.7382 4.21329C15.9299 4.13884 16.0255 4.10234 16.0962 4.08061L16.1001 4.07941L16.1041 4.08061C16.1747 4.10234 16.2703 4.13884 16.4621 4.21329L17.6599 4.67837L17.6905 4.69029C17.8044 4.73475 17.9475 4.7906 18.0997 4.82434C18.3848 4.88753 18.6803 4.88753 18.9654 4.82434C19.1176 4.7906 19.2607 4.73475 19.3746 4.69029L19.4052 4.67837C19.6667 4.57685 19.8196 4.51796 19.9328 4.48197L19.9555 4.47493L19.9571 4.49862C19.9645 4.61715 19.965 4.78103 19.965 5.06152V13.8611C19.965 15.5662 19.957 16.945 19.6958 17.9085C19.5702 18.3716 19.4117 18.6306 19.2588 18.7725C19.1299 18.8921 18.9298 19 18.5326 19C18.3522 19 18.1444 18.9266 17.9105 18.6383C17.6615 18.3314 17.4199 17.8148 17.2656 17.0648L17.2564 17.0202C17.1588 16.5456 17.0716 16.1215 16.9703 15.791C16.8697 15.4629 16.703 15.0354 16.3255 14.7276C15.9706 14.4383 15.5676 14.349 15.2328 14.312C14.9229 14.2777 14.5456 14.2777 14.147 14.2778L7.37041 14.2778V5.06151C7.37041 4.78102 7.37087 4.61715 7.37828 4.49863L7.37993 4.47494L7.40261 4.48197C7.51578 4.51797 7.6687 4.57685 7.93017 4.67837L7.96076 4.69029C8.07469 4.73475 8.21779 4.7906 8.37 4.82434C8.65509 4.88753 8.95056 4.88753 9.23565 4.82434C9.38786 4.7906 9.53096 4.73475 9.6449 4.69029L9.67548 4.67837L10.8733 4.21329ZM15.3067 17.4679C15.4199 18.0184 15.5829 18.5371 15.8015 19H6.37041C5.65006 19 5.20543 18.7645 4.89629 18.4523C4.56099 18.1138 4.31895 17.6148 4.16497 17.0118C4.11218 16.8051 4.07238 16.6487 4.04328 16.5138C4.02377 16.4233 4.01249 16.3575 4.00634 16.3089C4.1867 16.281 4.45492 16.2778 4.96499 16.2778H14.1001C14.5626 16.2778 14.8266 16.2792 15.0128 16.2998L15.0335 16.3023C15.0409 16.3232 15.0491 16.3481 15.0581 16.3773C15.1281 16.6057 15.1969 16.9347 15.3067 17.4679Z" fill="#222730"/>
</mask>
<g mask="url(#mask0_30361_8140)">
<rect width="24" height="24" fill="#000714" fill-opacity="0.6435"/>
</g>
</svg>
