<svg width="24" height="24" viewBox="0 0 24 24" fill="none" xmlns="http://www.w3.org/2000/svg">
<mask id="mask0_30361_8114" style="mask-type:alpha" maskUnits="userSpaceOnUse" x="0" y="0" width="24" height="24">
<path fill-rule="evenodd" clip-rule="evenodd" d="M10.2714 4.64856C9.51405 5.14819 8.62072 5.91219 7.33627 7.01424L6.00063 8.16021C4.77393 9.2127 4.4082 9.55428 4.21384 9.97205C4.02171 10.385 4 10.8659 4 12.4513V17.139C4 18.0783 4.00228 18.6786 4.06366 19.1193C4.12052 19.5275 4.21031 19.6475 4.28028 19.7151C4.35521 19.7874 4.49411 19.8805 4.93415 19.9376C5.39944 19.998 6.02988 20 7 20C7.49968 20 7.77383 19.9979 7.96403 19.9723C7.9665 19.972 7.96893 19.9716 7.97131 19.9713C7.97164 19.9689 7.97197 19.9665 7.97231 19.964C7.99788 19.7738 8 19.4997 8 19L8 15.8631C7.99999 15.4412 7.99997 15.0738 8.02152 14.7689C8.04431 14.4466 8.09471 14.1203 8.23328 13.7974C8.54374 13.0739 9.13415 12.51 9.86339 12.2184C10.1859 12.0895 10.5123 12.0421 10.84 12.0205C11.152 12 11.5295 12 11.9689 12H12.0311C12.4705 12 12.848 12 13.16 12.0205C13.4878 12.0421 13.8141 12.0895 14.1366 12.2184C14.8659 12.51 15.4563 13.0739 15.7667 13.7974C15.9053 14.1203 15.9557 14.4466 15.9785 14.7689C16 15.0738 16 15.4412 16 15.8631V19C16 19.4997 16.0021 19.7738 16.0277 19.964C16.028 19.9665 16.0284 19.9689 16.0287 19.9713C16.0311 19.9716 16.0335 19.972 16.036 19.9723C16.2262 19.9979 16.5003 20 17 20C17.9701 20 18.6006 19.998 19.0659 19.9376C19.5059 19.8805 19.6448 19.7874 19.7197 19.7151C19.7897 19.6475 19.8795 19.5275 19.9363 19.1193C19.9977 18.6786 20 18.0783 20 17.139V12.4513C20 10.8659 19.9783 10.385 19.7862 9.97205C19.5918 9.55428 19.2261 9.2127 17.9994 8.1602L16.6637 7.01424C15.3793 5.91219 14.486 5.14819 13.7286 4.64856C12.9955 4.16498 12.4916 4 12 4C11.5084 4 11.0045 4.16498 10.2714 4.64856ZM9.17013 2.97909C10.082 2.37757 10.9708 2 12 2C13.0292 2 13.918 2.37757 14.8299 2.97909C15.7053 3.55657 16.6937 4.40469 17.9152 5.45275L19.3017 6.64233C19.3529 6.68624 19.4034 6.72952 19.4533 6.77224C20.4622 7.63667 21.1993 8.26822 21.5995 9.1284C22.0018 9.99302 22.0011 10.9534 22.0001 12.2552C22 12.3197 22 12.3851 22 12.4513L22 17.2061C22.0001 18.0587 22.0001 18.8001 21.9172 19.3953C21.8276 20.0384 21.6245 20.6562 21.1087 21.1541C20.5978 21.6472 19.9725 21.8368 19.3232 21.921C18.7139 22.0001 17.9521 22 17.0641 22L17 22C16.9819 22 16.9637 22 16.9456 22C16.5215 22.0001 16.1094 22.0002 15.7695 21.9545C15.3863 21.903 14.949 21.7774 14.5858 21.4142C14.2226 21.051 14.0971 20.6137 14.0455 20.2305C13.9998 19.8906 13.9999 19.4785 14 19.0544C14 19.0363 14 19.0182 14 19V15.8957C14 15.4318 13.9994 15.1358 13.9835 14.91C13.9682 14.6939 13.9425 14.6179 13.9288 14.5861C13.8333 14.3635 13.645 14.1758 13.3941 14.0755C13.3491 14.0575 13.2587 14.0314 13.0286 14.0162C12.7902 14.0005 12.4792 14 12 14C11.5209 14 11.2098 14.0005 10.9714 14.0162C10.7413 14.0314 10.6509 14.0575 10.6059 14.0755C10.355 14.1758 10.1667 14.3635 10.0712 14.5861C10.0575 14.6179 10.0318 14.6939 10.0165 14.91C10.0006 15.1358 10 15.4318 10 15.8957V19C10 19.0182 10 19.0363 10 19.0544C10.0001 19.4785 10.0002 19.8906 9.95447 20.2305C9.90295 20.6137 9.77743 21.051 9.41422 21.4142C9.051 21.7774 8.61372 21.903 8.23052 21.9545C7.8906 22.0002 7.47847 22.0001 7.05439 22C7.03628 22 7.01815 22 7 22L6.93592 22C6.0479 22 5.28613 22.0001 4.67676 21.921C4.02755 21.8368 3.40216 21.6472 2.8913 21.1541C2.37548 20.6562 2.17238 20.0384 2.08279 19.3953C1.99989 18.8001 1.99994 18.0587 2 17.2061L2 12.4513C2 12.3851 1.99995 12.3197 1.99991 12.2552C1.99894 10.9534 1.99823 9.99302 2.40048 9.1284C2.80067 8.26822 3.53781 7.63666 4.54675 6.77224C4.59661 6.72952 4.64713 6.68624 4.69831 6.64233L6.08479 5.45274C7.30627 4.40469 8.29473 3.55657 9.17013 2.97909Z" fill="#222730"/>
</mask>
<g mask="url(#mask0_30361_8114)">
<rect width="24" height="24" fill="#30A46C"/>
</g>
</svg>
