<svg width="24" height="24" viewBox="0 0 24 24" fill="none" xmlns="http://www.w3.org/2000/svg">
<mask id="mask0_30361_8166" style="mask-type:alpha" maskUnits="userSpaceOnUse" x="0" y="0" width="24" height="24">
<path d="M16 2C16.5523 2 17 2.44772 17 3V4H17.75C20.0972 4 22 5.90279 22 8.25V9C22 9.55229 21.5523 10 21 10C20.4477 10 20 9.55229 20 9V8.25C20 7.00736 18.9926 6 17.75 6H17V7C17 7.55228 16.5523 8 16 8C15.4477 8 15 7.55228 15 7V6H11C10.2493 6 9.58769 6.00033 9 6.0089V7C9 7.55228 8.55229 8 8 8C7.44772 8 7 7.55228 7 7V6.10669C6.9124 6.11612 6.82717 6.12637 6.74416 6.13753C5.7658 6.26907 5.2477 6.50966 4.87868 6.87868C4.50966 7.2477 4.26907 7.76579 4.13753 8.74416C4.12637 8.82717 4.11612 8.9124 4.10669 9H13C13.5523 9 14 9.44772 14 10C14 10.5523 13.5523 11 13 11H4.0089C4.00033 11.5877 4 12.2493 4 13C4 14.9139 4.00213 16.2487 4.13753 17.2558C4.26907 18.2342 4.50966 18.7523 4.87868 19.1213C5.2477 19.4903 5.7658 19.7309 6.74416 19.8625C7.7513 19.9979 9.08611 20 11 20H11.5C12.0523 20 12.5 20.4477 12.5 21C12.5 21.5523 12.0523 22 11.5 22H10.9269C9.1034 22 7.63363 22.0001 6.47767 21.8446C5.27752 21.6833 4.26702 21.3381 3.46447 20.5355C2.66191 19.733 2.31672 18.7225 2.15537 17.5223C1.99995 16.3664 1.99997 14.8966 2 13.0732V12.9268C1.99999 11.9218 1.99997 11.0243 2.02598 10.2275C2.00899 10.1544 2 10.0782 2 10C2 9.89235 2.01701 9.78868 2.04849 9.69152C2.07149 9.25357 2.10539 8.84939 2.15537 8.47767C2.31672 7.27752 2.66191 6.26702 3.46447 5.46447C4.26702 4.66191 5.27752 4.31672 6.47767 4.15537C6.64515 4.13285 6.81922 4.11359 7 4.09713V3C7 2.44772 7.44772 2 8 2C8.55229 2 9 2.44772 9 3V4.00849C9.59271 3.99998 10.2343 3.99999 10.9268 4L15 4V3C15 2.44772 15.4477 2 16 2Z" fill="#222730"/>
<path d="M18.0006 10C18.5529 10 19.0006 10.4477 19.0006 11V11.5C19.0006 11.5217 18.9999 11.5432 18.9986 11.5646C20.2029 11.734 21.1328 12.2186 21.7071 12.7929C22.0976 13.1834 22.0976 13.8166 21.7071 14.2071C21.3166 14.5977 20.6834 14.5977 20.2929 14.2071C20.0092 13.9234 19.2784 13.5 18.0566 13.5C17.4243 13.5 16.8432 13.6135 16.459 13.8191C16.1238 13.9986 16 14.1982 16 14.5C16 14.5998 16.0512 14.8059 16.6575 15.0644C16.9244 15.1782 17.223 15.2663 17.5169 15.3421C17.5868 15.3601 17.6674 15.3799 17.7515 15.4005C17.9538 15.4501 18.176 15.5046 18.3162 15.5513C18.3814 15.573 18.4642 15.5931 18.5941 15.6246C18.6924 15.6484 18.8178 15.6788 18.9826 15.7213C19.3099 15.8057 19.7221 15.9233 20.127 16.0959C20.8642 16.4102 22 17.0998 22 18.5C22 19.6559 21.3965 20.4664 20.5729 20.9327C20.0918 21.2051 19.5436 21.3596 18.998 21.4365C18.9993 21.4575 19 21.4787 19 21.5001V22.0001C19 22.5523 18.5523 23.0001 18 23.0001C17.4477 23.0001 17 22.5523 17 22.0001V21.5001C17 21.474 17.001 21.4481 17.003 21.4226C15.8186 21.2446 14.8631 20.7773 14.2929 20.2071C13.9024 19.8166 13.9024 19.1834 14.2929 18.7929C14.6834 18.4024 15.3166 18.4024 15.7071 18.7929C15.976 19.0618 16.7813 19.5 18.0566 19.5C18.706 19.5 19.2464 19.3855 19.5875 19.1923C19.8677 19.0336 20 18.8441 20 18.5C20 18.4002 19.9488 18.1941 19.3425 17.9356C19.0756 17.8218 18.777 17.7337 18.4831 17.6579C18.4132 17.6399 18.3326 17.6201 18.2485 17.5995C18.0462 17.5499 17.824 17.4955 17.6838 17.4487C17.6186 17.427 17.5358 17.4069 17.4059 17.3754C17.3076 17.3516 17.1824 17.3213 17.0174 17.2787C16.6901 17.1943 16.2779 17.0767 15.873 16.9041C15.1358 16.5898 14 15.9002 14 14.5C14 13.3019 14.6828 12.5015 15.5151 12.0559C15.975 11.8097 16.4915 11.6609 17.0038 11.5801C17.0017 11.5537 17.0006 11.527 17.0006 11.5V11C17.0006 10.4477 17.4483 10 18.0006 10Z" fill="#222730"/>
</mask>
<g mask="url(#mask0_30361_8166)">
<rect width="24" height="24" fill="#000714" fill-opacity="0.6435"/>
</g>
</svg>
