<svg width="24" height="24" viewBox="0 0 24 24" fill="none" xmlns="http://www.w3.org/2000/svg">
<mask id="mask0_30361_8188" style="mask-type:alpha" maskUnits="userSpaceOnUse" x="0" y="0" width="24" height="24">
<path fill-rule="evenodd" clip-rule="evenodd" d="M3.55279 3.65836C4.06097 2.64201 5.09976 2 6.23607 2H17.7639C18.9003 2 19.939 2.64201 20.4472 3.65836L22.3895 7.54292C22.4201 7.60098 22.4492 7.6598 22.4779 7.71884C22.5313 7.82888 22.6028 7.98306 22.6751 8.15931C22.8007 8.4654 23 9.00265 23 9.50001C23 10.8962 22.1825 12.1015 21 12.6632V19C21 20.6569 19.6569 22 18 22H6C4.34315 22 3 20.6569 3 19V12.6632C1.81753 12.1015 1 10.8962 1 9.50001C1 9.00265 1.19926 8.4654 1.32485 8.15931C1.39717 7.98306 1.46875 7.82888 1.52212 7.71884C1.55082 7.65967 1.58003 7.60072 1.6107 7.54254L3.55279 3.65836ZM5 12.9646V19C5 19.5523 5.44772 20 6 20H8.00001L8.00001 17.9456C7.99992 17.5215 7.99984 17.1094 8.04554 16.7695C8.09706 16.3863 8.22259 15.949 8.5858 15.5858C8.94902 15.2226 9.38629 15.0971 9.7695 15.0455C10.1094 14.9998 10.5215 14.9999 10.9456 15H13.0544C13.4785 14.9999 13.8906 14.9998 14.2305 15.0455C14.6137 15.0971 15.051 15.2226 15.4142 15.5858C15.7774 15.949 15.903 16.3863 15.9545 16.7695C16.0002 17.1094 16.0001 17.5215 16 17.9456L16 20H18C18.5523 20 19 19.5523 19 19V12.9646C18.2212 12.8532 17.5251 12.4854 17 11.9495C16.3647 12.5978 15.4793 13 14.5 13C13.5207 13 12.6353 12.5978 12 11.9495C11.3647 12.5978 10.4793 13 9.5 13C8.52066 13 7.63526 12.5978 7.00001 11.9495C6.47486 12.4854 5.77878 12.8532 5 12.9646ZM18.6584 4.55279L20.6042 8.44436C20.6085 8.4532 20.6131 8.462 20.6177 8.47076L20.6195 8.47418L20.6312 8.49685C20.642 8.51797 20.6584 8.55038 20.6784 8.59162C20.7187 8.67488 20.7722 8.79014 20.8249 8.91853C20.8783 9.04876 20.926 9.18042 20.9591 9.29839C20.9754 9.35665 20.9864 9.40513 20.993 9.44344C20.9998 9.48308 21 9.50001 21 9.50001C21 10.3284 20.3284 11 19.5 11C18.6716 11 18 10.3284 18 9.5C18 8.94772 17.5523 8.5 17 8.5C16.4477 8.5 16 8.94772 16 9.5C16 10.3284 15.3284 11 14.5 11C13.6716 11 13 10.3284 13 9.5C13 8.94771 12.5523 8.5 12 8.5C11.4477 8.5 11 8.94771 11 9.5C11 10.3284 10.3284 11 9.5 11C8.67157 11 8 10.3284 8 9.5C8 9.43097 7.993 9.36357 7.97968 9.29848C7.88644 8.84279 7.48325 8.5 7 8.5C6.53569 8.5 6.14529 8.81645 6.03269 9.24543C6.01973 9.29482 6.01045 9.34571 6.00516 9.39777C6.00175 9.43139 6 9.4655 6 9.50001C6 10.3284 5.32843 11 4.5 11C3.67157 11 3 10.3284 3 9.50001C3 9.50001 3.0002 9.48308 3.00702 9.44344C3.0136 9.40513 3.02457 9.35665 3.04092 9.29839C3.07403 9.18042 3.12171 9.04876 3.17515 8.91853C3.22783 8.79014 3.28125 8.67488 3.32163 8.59162C3.34163 8.55038 3.35796 8.51797 3.36877 8.49685L3.38048 8.47418L3.38198 8.47131C3.38623 8.46336 3.39038 8.45532 3.39443 8.44721L5.34165 4.55279C5.51104 4.214 5.8573 4 6.23607 4H17.7639C18.1427 4 18.489 4.214 18.6584 4.55279ZM14 20H10V18C10 17.5003 10.0021 17.2262 10.0277 17.036L10.0287 17.0287L10.036 17.0277C10.2262 17.0021 10.5003 17 11 17H13C13.4997 17 13.7738 17.0021 13.964 17.0277L13.9713 17.0287L13.9723 17.036C13.9979 17.2262 14 17.5003 14 18V20Z" fill="#222730"/>
</mask>
<g mask="url(#mask0_30361_8188)">
<rect width="24" height="24" fill="#000714" fill-opacity="0.6435"/>
</g>
</svg>
